<svg xmlns="http://www.w3.org/2000/svg" width="128" height="128" viewBox="0 0 128 128"><title>anime — crystal</title><defs>
  <radialGradient id="leaf" cx="35%" cy="25%" r="78%"><stop stop-color="#89a27e"/><stop offset=".42" stop-color="#89a27e"/><stop offset=".42" stop-color="#63866d"/><stop offset=".78" stop-color="#63866d"/><stop offset=".78" stop-color="#374c56"/><stop offset="1" stop-color="#374c56"/></radialGradient>
  <radialGradient id="gold" cx="32%" cy="20%" r="80%"><stop stop-color="#cbc792"/><stop offset=".42" stop-color="#cbc792"/><stop offset=".42" stop-color="#9eac7b"/><stop offset=".78" stop-color="#9eac7b"/><stop offset=".78" stop-color="#6e8068"/><stop offset="1" stop-color="#6e8068"/></radialGradient>
  <radialGradient id="pine" cx="30%" cy="24%" r="80%"><stop stop-color="#85a599"/><stop offset=".42" stop-color="#85a599"/><stop offset=".42" stop-color="#5d8c85"/><stop offset=".78" stop-color="#5d8c85"/><stop offset=".78" stop-color="#334b5b"/><stop offset="1" stop-color="#334b5b"/></radialGradient>
  <linearGradient id="stone" x2=".7" y2="1"><stop stop-color="#e4e5f1"/><stop offset=".42" stop-color="#e4e5f1"/><stop offset=".42" stop-color="#a8b5d1"/><stop offset=".78" stop-color="#a8b5d1"/><stop offset=".78" stop-color="#7283a4"/><stop offset="1" stop-color="#7283a4"/></linearGradient>
  <linearGradient id="wood" x2="0" y2="1"><stop stop-color="#ebbb78"/><stop offset=".42" stop-color="#ebbb78"/><stop offset=".42" stop-color="#c08b58"/><stop offset=".78" stop-color="#c08b58"/><stop offset=".78" stop-color="#866044"/><stop offset="1" stop-color="#866044"/></linearGradient>
  <linearGradient id="crystal" x2=".8" y2="1"><stop stop-color="#faf5ff"/><stop offset=".42" stop-color="#faf5ff"/><stop offset=".42" stop-color="#b59de9"/><stop offset=".78" stop-color="#b59de9"/><stop offset=".78" stop-color="#6755a5"/><stop offset="1" stop-color="#6755a5"/></linearGradient>
  <radialGradient id="flame"><stop stop-color="#fffbe0"/><stop offset=".42" stop-color="#fffbe0"/><stop offset=".42" stop-color="#ffda89"/><stop offset=".78" stop-color="#ffda89"/><stop offset=".78" stop-color="#d9716e"/><stop offset="1" stop-color="#d9716e"/></radialGradient>
<filter id="white"><feColorMatrix type="matrix" values="0 0 0 0 1 0 0 0 0 1 0 0 0 0 1 0 0 0 1 0"/></filter><g id="art"><g transform="translate(37 73) rotate(-38) scale(0.75)"><path d="M-12 11L-15 -21 0 -48 14 -22 11 11 0 20Z" fill="url(#crystal)" stroke="#3c526a" stroke-width="1.5" stroke-linejoin="round" stroke-linecap="round"/><path d="M0 -48L-2 -19 0 20M-15 -21L-2 -19 14 -22M-2 -19L11 11" fill="none" stroke="#fff6ff" stroke-width="1.5" stroke-linejoin="round" stroke-linecap="round"/><path d="M-15 -21L0 -48 -2 -19 0 20 -12 11Z" fill="#d8c1fa" stroke="none" stroke-width="1.4" stroke-linejoin="round" stroke-linecap="round"/></g><g transform="translate(91 76) rotate(35) scale(0.8)"><path d="M-12 11L-15 -21 0 -48 14 -22 11 11 0 20Z" fill="url(#crystal)" stroke="#3c526a" stroke-width="1.5" stroke-linejoin="round" stroke-linecap="round"/><path d="M0 -48L-2 -19 0 20M-15 -21L-2 -19 14 -22M-2 -19L11 11" fill="none" stroke="#fff6ff" stroke-width="1.5" stroke-linejoin="round" stroke-linecap="round"/><path d="M-15 -21L0 -48 -2 -19 0 20 -12 11Z" fill="#d8c1fa" stroke="none" stroke-width="1.4" stroke-linejoin="round" stroke-linecap="round"/></g><g transform="translate(64 63) rotate(5) scale(1.2)"><path d="M-12 11L-15 -21 0 -48 14 -22 11 11 0 20Z" fill="url(#crystal)" stroke="#3c526a" stroke-width="1.5" stroke-linejoin="round" stroke-linecap="round"/><path d="M0 -48L-2 -19 0 20M-15 -21L-2 -19 14 -22M-2 -19L11 11" fill="none" stroke="#fff6ff" stroke-width="1.5" stroke-linejoin="round" stroke-linecap="round"/><path d="M-15 -21L0 -48 -2 -19 0 20 -12 11Z" fill="#d8c1fa" stroke="none" stroke-width="1.4" stroke-linejoin="round" stroke-linecap="round"/></g><g transform="translate(67 101) rotate(75) scale(0.55)"><path d="M-12 11L-15 -21 0 -48 14 -22 11 11 0 20Z" fill="url(#crystal)" stroke="#3c526a" stroke-width="1.5" stroke-linejoin="round" stroke-linecap="round"/><path d="M0 -48L-2 -19 0 20M-15 -21L-2 -19 14 -22M-2 -19L11 11" fill="none" stroke="#fff6ff" stroke-width="1.5" stroke-linejoin="round" stroke-linecap="round"/><path d="M-15 -21L0 -48 -2 -19 0 20 -12 11Z" fill="#d8c1fa" stroke="none" stroke-width="1.4" stroke-linejoin="round" stroke-linecap="round"/></g><path d="M56 19Q57 25 63 26Q57 27 56 33Q55 27 49 26Q55 25 56 19Z" fill="#fff4fb" stroke="none" stroke-width="1.6" stroke-linecap="round" stroke-linejoin="round"/><path d="M93 51Q94 55 98 56Q94 57 93 61Q92 57 88 56Q92 55 93 51Z" fill="#f8edff" stroke="none" stroke-width="1.6" stroke-linecap="round" stroke-linejoin="round"/><path d="M39 75Q40 77 42 78Q40 79 39 81Q38 79 36 78Q38 77 39 75Z" fill="#fff6ed" stroke="none" stroke-width="1.6" stroke-linecap="round" stroke-linejoin="round"/></g><mask id="wear" maskUnits="userSpaceOnUse" x="0" y="0" width="128" height="128"><use href="#art" filter="url(#white)"/></mask></defs><use href="#art"/></svg>