<svg xmlns="http://www.w3.org/2000/svg" width="128" height="128" viewBox="0 0 128 128"><title>anime — lilies</title><defs>
  <radialGradient id="leaf" cx="35%" cy="25%" r="78%"><stop stop-color="#89a27e"/><stop offset=".42" stop-color="#89a27e"/><stop offset=".42" stop-color="#63866d"/><stop offset=".78" stop-color="#63866d"/><stop offset=".78" stop-color="#374c56"/><stop offset="1" stop-color="#374c56"/></radialGradient>
  <radialGradient id="gold" cx="32%" cy="20%" r="80%"><stop stop-color="#cbc792"/><stop offset=".42" stop-color="#cbc792"/><stop offset=".42" stop-color="#9eac7b"/><stop offset=".78" stop-color="#9eac7b"/><stop offset=".78" stop-color="#6e8068"/><stop offset="1" stop-color="#6e8068"/></radialGradient>
  <radialGradient id="pine" cx="30%" cy="24%" r="80%"><stop stop-color="#85a599"/><stop offset=".42" stop-color="#85a599"/><stop offset=".42" stop-color="#5d8c85"/><stop offset=".78" stop-color="#5d8c85"/><stop offset=".78" stop-color="#334b5b"/><stop offset="1" stop-color="#334b5b"/></radialGradient>
  <linearGradient id="stone" x2=".7" y2="1"><stop stop-color="#e4e5f1"/><stop offset=".42" stop-color="#e4e5f1"/><stop offset=".42" stop-color="#a8b5d1"/><stop offset=".78" stop-color="#a8b5d1"/><stop offset=".78" stop-color="#7283a4"/><stop offset="1" stop-color="#7283a4"/></linearGradient>
  <linearGradient id="wood" x2="0" y2="1"><stop stop-color="#ebbb78"/><stop offset=".42" stop-color="#ebbb78"/><stop offset=".42" stop-color="#c08b58"/><stop offset=".78" stop-color="#c08b58"/><stop offset=".78" stop-color="#866044"/><stop offset="1" stop-color="#866044"/></linearGradient>
  <linearGradient id="crystal" x2=".8" y2="1"><stop stop-color="#faf5ff"/><stop offset=".42" stop-color="#faf5ff"/><stop offset=".42" stop-color="#b59de9"/><stop offset=".78" stop-color="#b59de9"/><stop offset=".78" stop-color="#6755a5"/><stop offset="1" stop-color="#6755a5"/></linearGradient>
  <radialGradient id="flame"><stop stop-color="#fffbe0"/><stop offset=".42" stop-color="#fffbe0"/><stop offset=".42" stop-color="#ffda89"/><stop offset=".78" stop-color="#ffda89"/><stop offset=".78" stop-color="#d9716e"/><stop offset="1" stop-color="#d9716e"/></radialGradient>
<filter id="white"><feColorMatrix type="matrix" values="0 0 0 0 1 0 0 0 0 1 0 0 0 0 1 0 0 0 1 0"/></filter><g id="art"><path d="M44 43l20 -2a20 20 0 1 1 -5 -12Z" fill="#83a580" stroke="#3b545f" stroke-width="1.4" stroke-linejoin="round" stroke-linecap="round"/><path d="M32 41q1 -9 9 -11" fill="none" stroke="#b7c79c" stroke-width="1.4" stroke-linejoin="round" stroke-linecap="round"/><path d="M81 73l24 -2a24 24 0 1 1 -5 -12Z" fill="#83a580" stroke="#3b545f" stroke-width="1.4" stroke-linejoin="round" stroke-linecap="round"/><path d="M66.6 71q1 -9 9 -11" fill="none" stroke="#b7c79c" stroke-width="1.4" stroke-linejoin="round" stroke-linecap="round"/><path d="M37 88l13 -2a13 13 0 1 1 -5 -12Z" fill="#83a580" stroke="#3b545f" stroke-width="1.4" stroke-linejoin="round" stroke-linecap="round"/><path d="M29.2 86q1 -9 9 -11" fill="none" stroke="#b7c79c" stroke-width="1.4" stroke-linejoin="round" stroke-linecap="round"/><ellipse cx="83" cy="65" rx="4" ry="10" fill="#e3d0d0" transform="rotate(0 83 74)"/><ellipse cx="83" cy="65" rx="4" ry="10" fill="#e3d0d0" transform="rotate(51 83 74)"/><ellipse cx="83" cy="65" rx="4" ry="10" fill="#e3d0d0" transform="rotate(102 83 74)"/><ellipse cx="83" cy="65" rx="4" ry="10" fill="#e3d0d0" transform="rotate(153 83 74)"/><ellipse cx="83" cy="65" rx="4" ry="10" fill="#e3d0d0" transform="rotate(204 83 74)"/><ellipse cx="83" cy="65" rx="4" ry="10" fill="#e3d0d0" transform="rotate(255 83 74)"/><ellipse cx="83" cy="65" rx="4" ry="10" fill="#e3d0d0" transform="rotate(306 83 74)"/><circle cx="83.00" cy="74.00" r="5.00" fill="#e5c483" /><path d="M87 54Q88 58 92 59Q88 60 87 64Q86 60 82 59Q86 58 87 54Z" fill="#fff4fd" stroke="none" stroke-width="1.6" stroke-linecap="round" stroke-linejoin="round"/><path d="M82 67l-3 -12 7 6 7 -4 -3 13Z" fill="#fbd6e5" stroke="#ab88b7" stroke-width="1" stroke-linecap="round" stroke-linejoin="round"/></g><mask id="wear" maskUnits="userSpaceOnUse" x="0" y="0" width="128" height="128"><use href="#art" filter="url(#white)"/></mask></defs><use href="#art"/></svg>