<svg xmlns="http://www.w3.org/2000/svg" width="128" height="128" viewBox="0 0 128 128"><title>anime — log</title><defs>
  <radialGradient id="leaf" cx="35%" cy="25%" r="78%"><stop stop-color="#89a27e"/><stop offset=".42" stop-color="#89a27e"/><stop offset=".42" stop-color="#63866d"/><stop offset=".78" stop-color="#63866d"/><stop offset=".78" stop-color="#374c56"/><stop offset="1" stop-color="#374c56"/></radialGradient>
  <radialGradient id="gold" cx="32%" cy="20%" r="80%"><stop stop-color="#cbc792"/><stop offset=".42" stop-color="#cbc792"/><stop offset=".42" stop-color="#9eac7b"/><stop offset=".78" stop-color="#9eac7b"/><stop offset=".78" stop-color="#6e8068"/><stop offset="1" stop-color="#6e8068"/></radialGradient>
  <radialGradient id="pine" cx="30%" cy="24%" r="80%"><stop stop-color="#85a599"/><stop offset=".42" stop-color="#85a599"/><stop offset=".42" stop-color="#5d8c85"/><stop offset=".78" stop-color="#5d8c85"/><stop offset=".78" stop-color="#334b5b"/><stop offset="1" stop-color="#334b5b"/></radialGradient>
  <linearGradient id="stone" x2=".7" y2="1"><stop stop-color="#e4e5f1"/><stop offset=".42" stop-color="#e4e5f1"/><stop offset=".42" stop-color="#a8b5d1"/><stop offset=".78" stop-color="#a8b5d1"/><stop offset=".78" stop-color="#7283a4"/><stop offset="1" stop-color="#7283a4"/></linearGradient>
  <linearGradient id="wood" x2="0" y2="1"><stop stop-color="#ebbb78"/><stop offset=".42" stop-color="#ebbb78"/><stop offset=".42" stop-color="#c08b58"/><stop offset=".78" stop-color="#c08b58"/><stop offset=".78" stop-color="#866044"/><stop offset="1" stop-color="#866044"/></linearGradient>
  <linearGradient id="crystal" x2=".8" y2="1"><stop stop-color="#faf5ff"/><stop offset=".42" stop-color="#faf5ff"/><stop offset=".42" stop-color="#b59de9"/><stop offset=".78" stop-color="#b59de9"/><stop offset=".78" stop-color="#6755a5"/><stop offset="1" stop-color="#6755a5"/></linearGradient>
  <radialGradient id="flame"><stop stop-color="#fffbe0"/><stop offset=".42" stop-color="#fffbe0"/><stop offset=".42" stop-color="#ffda89"/><stop offset=".78" stop-color="#ffda89"/><stop offset=".78" stop-color="#d9716e"/><stop offset="1" stop-color="#d9716e"/></radialGradient>
<filter id="white"><feColorMatrix type="matrix" values="0 0 0 0 1 0 0 0 0 1 0 0 0 0 1 0 0 0 1 0"/></filter><g id="art"><path d="M19 48L105 45 111 74 23 82Z" fill="url(#wood)" stroke="#40424e" stroke-width="2" stroke-linejoin="round" stroke-linecap="round"/><path d="M29 54L99 51M31 64L91 58 104 61M32 72L106 67M71 47L76 34 83 37 79 48" fill="none" stroke="#454450" stroke-width="2" stroke-linejoin="round" stroke-linecap="round"/><ellipse cx="25" cy="65" rx="10" ry="17" fill="#c7b294" stroke="#494851" stroke-width="2"/><ellipse cx="25" cy="65" rx="5" ry="11" fill="none" stroke="#98876d"/><ellipse cx="25" cy="65" rx="2" ry="5" fill="none" stroke="#98876d"/><path d="M100.44 65.68Q101.96 69.00 101.23 72.98Q100.49 76.97 96.70 78.37Q92.90 79.78 89.61 78.45Q86.31 77.12 83.81 74.82Q81.31 72.53 81.33 69.01Q81.36 65.49 83.17 62.04Q84.98 58.58 88.93 58.46Q92.88 58.34 95.90 60.35Q98.92 62.36 100.44 65.68Z" fill="#768a6f" stroke="#364852" stroke-width="1.2" stroke-linejoin="round" stroke-linecap="round"/><path d="M49 46q7 -13 13 -5q-10 3 -13 5M77 48q-3 -13 7 -14q4 9 -7 14" fill="#90c493" stroke="#4f7480" stroke-width="1.4" stroke-linecap="round" stroke-linejoin="round"/></g><mask id="wear" maskUnits="userSpaceOnUse" x="0" y="0" width="128" height="128"><use href="#art" filter="url(#white)"/></mask></defs><use href="#art"/></svg>