<svg xmlns="http://www.w3.org/2000/svg" width="128" height="128" viewBox="0 0 128 128"><title>anime — market-stall</title><defs><linearGradient id="stone" x2=".7" y2="1"><stop stop-color="#e4e5f1"/><stop offset=".42" stop-color="#e4e5f1"/><stop offset=".42" stop-color="#a8b5d1"/><stop offset=".78" stop-color="#a8b5d1"/><stop offset=".78" stop-color="#7283a4"/><stop offset="1" stop-color="#7283a4"/></linearGradient><linearGradient id="wood" x2="0" y2="1"><stop stop-color="#ebbb78"/><stop offset=".42" stop-color="#ebbb78"/><stop offset=".42" stop-color="#c08b58"/><stop offset=".78" stop-color="#c08b58"/><stop offset=".78" stop-color="#866044"/><stop offset="1" stop-color="#866044"/></linearGradient><linearGradient id="roof" x2="1" y2=".3"><stop stop-color="#f0b997"/><stop offset=".42" stop-color="#f0b997"/><stop offset=".42" stop-color="#cb7783"/><stop offset=".78" stop-color="#cb7783"/><stop offset=".78" stop-color="#8a5f79"/><stop offset="1" stop-color="#8a5f79"/></linearGradient><linearGradient id="cloth" x2=".5" y2="1"><stop stop-color="#cfc9a8"/><stop offset=".42" stop-color="#cfc9a8"/><stop offset=".42" stop-color="#a0a68f"/><stop offset=".78" stop-color="#a0a68f"/><stop offset=".78" stop-color="#6f8178"/><stop offset="1" stop-color="#6f8178"/></linearGradient><filter id="white"><feColorMatrix type="matrix" values="0 0 0 0 1 0 0 0 0 1 0 0 0 0 1 0 0 0 1 0"/></filter><g id="art"><rect x="17" y="30" width="94" height="75" rx="2" fill="url(#wood)" stroke="#434957" stroke-width="2"/><rect x="23" y="22" width="82" height="52" rx="2" fill="url(#cloth)" stroke="#434957" stroke-width="2"/><rect x="28" y="22" width="10" height="52" rx="0" fill="#aa756d" stroke="none" stroke-width="2"/><rect x="48" y="22" width="10" height="52" rx="0" fill="#aa756d" stroke="none" stroke-width="2"/><rect x="68" y="22" width="10" height="52" rx="0" fill="#aa756d" stroke="none" stroke-width="2"/><rect x="88" y="22" width="10" height="52" rx="0" fill="#aa756d" stroke="none" stroke-width="2"/><path d="M20 23H109M20 75H109" fill="none" stroke="#e2cdac" stroke-width="3" stroke-linejoin="round" stroke-linecap="round"/><circle cx="32" cy="91" r="7" fill="#c0be89" stroke="#434957" stroke-width="2"/><circle cx="52" cy="91" r="7" fill="#bd967c" stroke="#434957" stroke-width="2"/><circle cx="73" cy="91" r="7" fill="#7b9b7a" stroke="#434957" stroke-width="2"/><circle cx="94" cy="91" r="7" fill="#d4c4a6" stroke="#434957" stroke-width="2"/><rect x="14" y="72" width="6" height="38" rx="2" fill="url(#wood)" stroke="#434957" stroke-width="2"/><rect x="109" y="72" width="6" height="38" rx="2" fill="url(#wood)" stroke="#434957" stroke-width="2"/><g transform="translate(64 45) scale(0.65)"><path d="M-10 -12L0 -9 10 -12 9 3Q8 11 0 15Q-8 11 -9 3Z" fill="#6d82bd" stroke="#f1d594" stroke-width="1.6" stroke-linecap="round" stroke-linejoin="round"/><path d="M0 -7V8M-5 0H5" fill="none" stroke="#f1d594" stroke-width="1.4" stroke-linecap="round" stroke-linejoin="round"/></g><path d="M23 75q8 12 16 0t16 0 16 0 16 0 16 0" fill="none" stroke="#f2d496" stroke-width="2" stroke-linecap="round" stroke-linejoin="round"/></g><mask id="wear" maskUnits="userSpaceOnUse" x="0" y="0" width="128" height="128"><use href="#art" filter="url(#white)"/></mask></defs><use href="#art"/></svg>