<svg xmlns="http://www.w3.org/2000/svg" width="128" height="128" viewBox="0 0 128 128"><title>anime — rock</title><defs>
  <radialGradient id="leaf" cx="35%" cy="25%" r="78%"><stop stop-color="#89a27e"/><stop offset=".42" stop-color="#89a27e"/><stop offset=".42" stop-color="#63866d"/><stop offset=".78" stop-color="#63866d"/><stop offset=".78" stop-color="#374c56"/><stop offset="1" stop-color="#374c56"/></radialGradient>
  <radialGradient id="gold" cx="32%" cy="20%" r="80%"><stop stop-color="#cbc792"/><stop offset=".42" stop-color="#cbc792"/><stop offset=".42" stop-color="#9eac7b"/><stop offset=".78" stop-color="#9eac7b"/><stop offset=".78" stop-color="#6e8068"/><stop offset="1" stop-color="#6e8068"/></radialGradient>
  <radialGradient id="pine" cx="30%" cy="24%" r="80%"><stop stop-color="#85a599"/><stop offset=".42" stop-color="#85a599"/><stop offset=".42" stop-color="#5d8c85"/><stop offset=".78" stop-color="#5d8c85"/><stop offset=".78" stop-color="#334b5b"/><stop offset="1" stop-color="#334b5b"/></radialGradient>
  <linearGradient id="stone" x2=".7" y2="1"><stop stop-color="#e4e5f1"/><stop offset=".42" stop-color="#e4e5f1"/><stop offset=".42" stop-color="#a8b5d1"/><stop offset=".78" stop-color="#a8b5d1"/><stop offset=".78" stop-color="#7283a4"/><stop offset="1" stop-color="#7283a4"/></linearGradient>
  <linearGradient id="wood" x2="0" y2="1"><stop stop-color="#ebbb78"/><stop offset=".42" stop-color="#ebbb78"/><stop offset=".42" stop-color="#c08b58"/><stop offset=".78" stop-color="#c08b58"/><stop offset=".78" stop-color="#866044"/><stop offset="1" stop-color="#866044"/></linearGradient>
  <linearGradient id="crystal" x2=".8" y2="1"><stop stop-color="#faf5ff"/><stop offset=".42" stop-color="#faf5ff"/><stop offset=".42" stop-color="#b59de9"/><stop offset=".78" stop-color="#b59de9"/><stop offset=".78" stop-color="#6755a5"/><stop offset="1" stop-color="#6755a5"/></linearGradient>
  <radialGradient id="flame"><stop stop-color="#fffbe0"/><stop offset=".42" stop-color="#fffbe0"/><stop offset=".42" stop-color="#ffda89"/><stop offset=".78" stop-color="#ffda89"/><stop offset=".78" stop-color="#d9716e"/><stop offset="1" stop-color="#d9716e"/></radialGradient>
<filter id="white"><feColorMatrix type="matrix" values="0 0 0 0 1 0 0 0 0 1 0 0 0 0 1 0 0 0 1 0"/></filter><g id="art"><g transform="translate(75 79) scale(0.75)"><path d="M-31 -16L-10 -33 17 -28 33 -7 26 21 0 31 -27 14Z" fill="url(#stone)" stroke="#3f4a5a" stroke-width="2" stroke-linejoin="round" stroke-linecap="round"/><path d="M-31 -16L-7 -18 10 -9 17 -28M-7 -18L-14 10 0 31M-14 10L13 13 33 -7" fill="none" stroke="#cacec3" stroke-width="1.3" stroke-linejoin="round" stroke-linecap="round"/><path d="M13 13L26 21 0 31 -14 10Z" fill="#707f81" stroke="none" stroke-width="1.4" stroke-linejoin="round" stroke-linecap="round"/><path d="M-10 -28L-23 -15M-26 2L-22 10" fill="none" stroke="#d7d5ca" stroke-width="1.4" stroke-linejoin="round" stroke-linecap="round"/></g><g transform="translate(38 78) scale(0.57)"><path d="M-31 -16L-10 -33 17 -28 33 -7 26 21 0 31 -27 14Z" fill="url(#stone)" stroke="#3f4a5a" stroke-width="2" stroke-linejoin="round" stroke-linecap="round"/><path d="M-31 -16L-7 -18 10 -9 17 -28M-7 -18L-14 10 0 31M-14 10L13 13 33 -7" fill="none" stroke="#cacec3" stroke-width="1.3" stroke-linejoin="round" stroke-linecap="round"/><path d="M13 13L26 21 0 31 -14 10Z" fill="#707f81" stroke="none" stroke-width="1.4" stroke-linejoin="round" stroke-linecap="round"/><path d="M-10 -28L-23 -15M-26 2L-22 10" fill="none" stroke="#d7d5ca" stroke-width="1.4" stroke-linejoin="round" stroke-linecap="round"/></g><g transform="translate(58 49) scale(1)"><path d="M-31 -16L-10 -33 17 -28 33 -7 26 21 0 31 -27 14Z" fill="url(#stone)" stroke="#3f4a5a" stroke-width="2" stroke-linejoin="round" stroke-linecap="round"/><path d="M-31 -16L-7 -18 10 -9 17 -28M-7 -18L-14 10 0 31M-14 10L13 13 33 -7" fill="none" stroke="#cacec3" stroke-width="1.3" stroke-linejoin="round" stroke-linecap="round"/><path d="M13 13L26 21 0 31 -14 10Z" fill="#707f81" stroke="none" stroke-width="1.4" stroke-linejoin="round" stroke-linecap="round"/><path d="M-10 -28L-23 -15M-26 2L-22 10" fill="none" stroke="#d7d5ca" stroke-width="1.4" stroke-linejoin="round" stroke-linecap="round"/></g><path d="M48 28l6 7 -3 6 7 9m-4 -15 9 1" fill="none" stroke="#565a89" stroke-width="1" stroke-linecap="round" stroke-linejoin="round"/><path d="M68 70l6 7 -3 6 7 9m-4 -15 9 1" fill="none" stroke="#565a89" stroke-width="1" stroke-linecap="round" stroke-linejoin="round"/><path d="M49 34l-6 8m11 -12 7 -1" fill="none" stroke="#f4efff" stroke-width="2.4" stroke-linecap="round" stroke-linejoin="round"/></g><mask id="wear" maskUnits="userSpaceOnUse" x="0" y="0" width="128" height="128"><use href="#art" filter="url(#white)"/></mask></defs><use href="#art"/></svg>