<svg xmlns="http://www.w3.org/2000/svg" width="128" height="128" viewBox="0 0 128 128"><title>anime — tree-pine</title><defs>
  <radialGradient id="leaf" cx="35%" cy="25%" r="78%"><stop stop-color="#89a27e"/><stop offset=".42" stop-color="#89a27e"/><stop offset=".42" stop-color="#63866d"/><stop offset=".78" stop-color="#63866d"/><stop offset=".78" stop-color="#374c56"/><stop offset="1" stop-color="#374c56"/></radialGradient>
  <radialGradient id="gold" cx="32%" cy="20%" r="80%"><stop stop-color="#cbc792"/><stop offset=".42" stop-color="#cbc792"/><stop offset=".42" stop-color="#9eac7b"/><stop offset=".78" stop-color="#9eac7b"/><stop offset=".78" stop-color="#6e8068"/><stop offset="1" stop-color="#6e8068"/></radialGradient>
  <radialGradient id="pine" cx="30%" cy="24%" r="80%"><stop stop-color="#85a599"/><stop offset=".42" stop-color="#85a599"/><stop offset=".42" stop-color="#5d8c85"/><stop offset=".78" stop-color="#5d8c85"/><stop offset=".78" stop-color="#334b5b"/><stop offset="1" stop-color="#334b5b"/></radialGradient>
  <linearGradient id="stone" x2=".7" y2="1"><stop stop-color="#e4e5f1"/><stop offset=".42" stop-color="#e4e5f1"/><stop offset=".42" stop-color="#a8b5d1"/><stop offset=".78" stop-color="#a8b5d1"/><stop offset=".78" stop-color="#7283a4"/><stop offset="1" stop-color="#7283a4"/></linearGradient>
  <linearGradient id="wood" x2="0" y2="1"><stop stop-color="#ebbb78"/><stop offset=".42" stop-color="#ebbb78"/><stop offset=".42" stop-color="#c08b58"/><stop offset=".78" stop-color="#c08b58"/><stop offset=".78" stop-color="#866044"/><stop offset="1" stop-color="#866044"/></linearGradient>
  <linearGradient id="crystal" x2=".8" y2="1"><stop stop-color="#faf5ff"/><stop offset=".42" stop-color="#faf5ff"/><stop offset=".42" stop-color="#b59de9"/><stop offset=".78" stop-color="#b59de9"/><stop offset=".78" stop-color="#6755a5"/><stop offset="1" stop-color="#6755a5"/></linearGradient>
  <radialGradient id="flame"><stop stop-color="#fffbe0"/><stop offset=".42" stop-color="#fffbe0"/><stop offset=".42" stop-color="#ffda89"/><stop offset=".78" stop-color="#ffda89"/><stop offset=".78" stop-color="#d9716e"/><stop offset="1" stop-color="#d9716e"/></radialGradient>
<filter id="white"><feColorMatrix type="matrix" values="0 0 0 0 1 0 0 0 0 1 0 0 0 0 1 0 0 0 1 0"/></filter><g id="art"><path d="M55 81L44 108 59 97 68 118 76 94 92 105 80 74Z" fill="#b3906e" stroke="#5f5360" stroke-width="2" stroke-linecap="round" stroke-linejoin="round"/><path d="M115.73 55.56Q121.87 65 114.98 74.13Q108.1 83.27 105.53 93.61Q102.96 103.96 92.61 106.53Q82.26 109.09 73.13 112.89Q64 116.68 52.9 117.64Q41.79 118.61 33.82 110.89Q25.84 103.16 19.93 94.43Q14.02 85.7 10.73 75.35Q7.44 65 13.25 55.7Q19.07 46.39 25.55 39.7Q32.02 33.02 37.82 24.41Q43.62 15.81 53.81 17.47Q64 19.13 72.74 20.96Q81.48 22.79 91.3 25.34Q101.11 27.89 105.35 37Q109.6 46.11 115.73 55.56Z" fill="#376d73" stroke="#3c4f5a" stroke-width="1.5" stroke-linecap="round" stroke-linejoin="round"/><path d="M117.79 54.3Q116.89 59 117.04 63.39Q117.19 67.78 115.48 72.27Q113.76 76.76 108.84 77.44Q103.92 78.12 99.96 79.47Q96 80.82 92.19 79.1Q88.39 77.38 85.17 75.22Q81.95 73.05 77.55 70.76Q73.15 68.46 73.97 63.73Q74.79 59 73.85 54.22Q72.91 49.44 76.25 46.01Q79.59 42.59 83 39.22Q86.41 35.85 91.2 37.06Q96 38.27 100.05 38.85Q104.1 39.43 107.51 41.76Q110.92 44.08 114.8 46.84Q118.68 49.6 117.79 54.3Z" fill="#509a98" stroke="#475865" stroke-width="1.5" stroke-linecap="round" stroke-linejoin="round"/><path d="M111.39 50.26Q111.73 54 111.31 57.7Q110.88 61.41 108.26 64.02Q105.64 66.64 102.27 67.45Q98.9 68.25 95.95 70.83Q93 73.42 89.98 71.01Q86.95 68.61 82.99 68.28Q79.04 67.96 78.85 63.95Q78.66 59.94 76.6 56.97Q74.53 54 75.49 50.57Q76.45 47.15 79.08 44.92Q81.7 42.7 84.14 40.59Q86.57 38.48 89.79 37.42Q93 36.37 96.16 37.54Q99.33 38.72 101.94 40.58Q104.56 42.44 107.8 44.48Q111.05 46.52 111.39 50.26Z" fill="#79beb0" stroke="none" stroke-width="1.5" stroke-linecap="round" stroke-linejoin="round"/><path d="M84 53q2 -8 12 -8" fill="none" stroke="#bbe0ca" stroke-width="3" stroke-linecap="round" stroke-linejoin="round"/><path d="M110.06 75.73Q113.13 79.56 111.92 84.16Q110.72 88.76 108.4 92.93Q106.07 97.11 101.14 97.62Q96.21 98.12 92.37 98.65Q88.52 99.18 84.41 99.29Q80.31 99.39 75.69 98.2Q71.07 97.01 68.37 93.02Q65.68 89.02 65.23 84.29Q64.78 79.56 66.61 75.4Q68.45 71.24 69.55 66.47Q70.66 61.7 75.71 61.27Q80.77 60.84 84.64 59.34Q88.52 57.84 92.82 58.31Q97.13 58.78 100.57 61.43Q104.01 64.07 105.5 67.99Q107 71.91 110.06 75.73Z" fill="#509a98" stroke="#475865" stroke-width="1.5" stroke-linecap="round" stroke-linejoin="round"/><path d="M102.65 71.46Q104.78 74.56 102.38 77.55Q99.97 80.54 99.03 83.84Q98.1 87.14 95.56 89.91Q93.02 92.67 89.27 91.56Q85.52 90.44 81.88 91.29Q78.24 92.15 75.62 89.61Q73 87.08 71.75 83.93Q70.51 80.78 69.83 77.67Q69.16 74.56 69.41 71.27Q69.66 67.99 71.63 65.32Q73.61 62.65 75.97 59.93Q78.34 57.22 81.93 57.27Q85.52 57.32 88.92 57.73Q92.32 58.14 94.55 60.72Q96.78 63.3 98.65 65.83Q100.51 68.35 102.65 71.46Z" fill="#79beb0" stroke="none" stroke-width="1.5" stroke-linecap="round" stroke-linejoin="round"/><path d="M76.52 73.56q2 -8 12 -8" fill="none" stroke="#bbe0ca" stroke-width="3" stroke-linecap="round" stroke-linejoin="round"/><path d="M91.32 86.28Q92.62 90.51 90.55 94.43Q88.49 98.34 86.55 101.94Q84.61 105.54 80.99 107.43Q77.37 109.32 73.47 111.9Q69.58 114.47 64.81 114Q60.04 113.53 57.71 109.12Q55.38 104.71 52.04 101.94Q48.69 99.16 46.71 94.84Q44.72 90.51 45.63 85.74Q46.53 80.96 50.79 78.47Q55.04 75.97 57.93 72.65Q60.81 69.33 65.19 69.65Q69.58 69.96 73.67 70.35Q77.77 70.74 80.99 73.31Q84.22 75.87 87.12 78.96Q90.02 82.04 91.32 86.28Z" fill="#509a98" stroke="#475865" stroke-width="1.5" stroke-linecap="round" stroke-linejoin="round"/><path d="M85.51 81.77Q86.38 85.51 84.04 88.64Q81.7 91.77 80.02 94.52Q78.34 97.27 76.2 100.43Q74.07 103.59 70.32 102.3Q66.58 101 63.21 101.39Q59.84 101.77 57.47 99.38Q55.09 97 53.73 94.2Q52.38 91.39 49.88 88.45Q47.37 85.51 48.48 81.99Q49.59 78.47 52.17 76.07Q54.74 73.67 57.24 71.35Q59.75 69.02 63.16 68.52Q66.58 68.02 69.9 68.75Q73.22 69.48 76.7 70.7Q80.17 71.92 82.41 74.97Q84.64 78.03 85.51 81.77Z" fill="#79beb0" stroke="none" stroke-width="1.5" stroke-linecap="round" stroke-linejoin="round"/><path d="M57.58 84.51q2 -8 12 -8" fill="none" stroke="#bbe0ca" stroke-width="3" stroke-linecap="round" stroke-linejoin="round"/><path d="M70.51 82.26Q71.41 86.73 70.5 91.19Q69.59 95.66 65.9 98.29Q62.22 100.92 59.17 103.58Q56.11 106.24 52.07 107Q48.03 107.75 43.98 107.01Q39.93 106.27 36.94 103.55Q33.94 100.82 31.32 97.78Q28.69 94.74 28.31 90.73Q27.93 86.73 28.43 82.77Q28.93 78.82 30.47 74.76Q32.01 70.71 36.05 69.15Q40.1 67.58 44.06 66.74Q48.03 65.89 52.42 65.72Q56.8 65.54 61.35 67.21Q65.89 68.87 67.75 73.33Q69.61 77.79 70.51 82.26Z" fill="#509a98" stroke="#475865" stroke-width="1.5" stroke-linecap="round" stroke-linejoin="round"/><path d="M61.15 78.63Q62.31 81.73 61.21 84.85Q60.12 87.98 59.05 91.33Q57.98 94.68 54.79 96.13Q51.6 97.58 48.31 98.31Q45.03 99.04 42 97.69Q38.98 96.35 35.91 95.13Q32.85 93.91 31.85 90.76Q30.86 87.6 29.98 84.66Q29.1 81.73 29.74 78.7Q30.38 75.66 31.38 72.37Q32.38 69.09 35.52 67.71Q38.65 66.33 41.84 64.67Q45.03 63.01 48.53 63.92Q52.03 64.83 53.99 67.82Q55.95 70.81 57.97 73.17Q59.99 75.53 61.15 78.63Z" fill="#79beb0" stroke="none" stroke-width="1.5" stroke-linecap="round" stroke-linejoin="round"/><path d="M36.03 80.73q2 -8 12 -8" fill="none" stroke="#bbe0ca" stroke-width="3" stroke-linecap="round" stroke-linejoin="round"/><path d="M57.08 65.58Q58.93 69.99 56.87 74.31Q54.82 78.63 52.4 82.32Q49.97 86.02 46.67 89.37Q43.36 92.72 38.65 93.9Q33.95 95.07 29.8 92.55Q25.65 90.02 21.4 88.4Q17.16 86.77 16.06 82.31Q14.97 77.85 12.93 73.92Q10.9 69.99 11.93 65.64Q12.96 61.3 16.11 58.3Q19.25 55.29 21.99 51.51Q24.72 47.72 29.33 47.49Q33.95 47.26 37.98 48.88Q42.02 50.5 45.19 53.04Q48.36 55.57 51.8 58.37Q55.23 61.17 57.08 65.58Z" fill="#509a98" stroke="#475865" stroke-width="1.5" stroke-linecap="round" stroke-linejoin="round"/><path d="M46.44 61.89Q46.96 64.99 46.48 68.1Q45.99 71.22 45.15 74.78Q44.3 78.34 40.74 79.18Q37.17 80.02 34.06 80.2Q30.95 80.38 27.86 80.13Q24.78 79.88 22.27 78.03Q19.76 76.17 17.37 73.89Q14.99 71.6 13.66 68.29Q12.33 64.99 13.96 61.81Q15.59 58.63 17.29 55.82Q18.98 53.02 21.58 50.84Q24.18 48.66 27.56 47.56Q30.95 46.47 34.66 46.75Q38.38 47.03 40.46 50.22Q42.53 53.4 44.22 56.09Q45.92 58.78 46.44 61.89Z" fill="#79beb0" stroke="none" stroke-width="1.5" stroke-linecap="round" stroke-linejoin="round"/><path d="M21.95 63.99q2 -8 12 -8" fill="none" stroke="#bbe0ca" stroke-width="3" stroke-linecap="round" stroke-linejoin="round"/><path d="M56.51 43.96Q59.07 48.11 56.46 52.24Q53.86 56.37 51.13 59.49Q48.41 62.6 45.78 66.52Q43.16 70.44 38.53 69.81Q33.91 69.18 29.31 69.76Q24.7 70.34 21.34 67.19Q17.98 64.04 16.43 60.02Q14.88 55.99 11.85 52.05Q8.82 48.11 11.73 44.12Q14.64 40.13 17.19 37.03Q19.73 33.93 22.95 31.67Q26.17 29.42 30.04 27.36Q33.91 25.29 38.09 26.62Q42.26 27.94 45.07 31.04Q47.88 34.14 50.92 36.97Q53.95 39.81 56.51 43.96Z" fill="#509a98" stroke="#475865" stroke-width="1.5" stroke-linecap="round" stroke-linejoin="round"/><path d="M48.17 39.84Q49.64 43.11 48.8 46.64Q47.97 50.17 44.97 52.17Q41.98 54.18 39.95 57.11Q37.93 60.05 34.42 59.99Q30.91 59.92 27.27 60.3Q23.63 60.68 20.73 58.44Q17.82 56.2 16.76 52.81Q15.7 49.41 14.57 46.26Q13.45 43.11 13.89 39.68Q14.34 36.24 16.1 33.15Q17.85 30.05 20.83 27.99Q23.8 25.94 27.35 26.4Q30.91 26.87 33.88 27.83Q36.84 28.79 39.49 30.34Q42.14 31.88 44.42 34.22Q46.7 36.57 48.17 39.84Z" fill="#79beb0" stroke="none" stroke-width="1.5" stroke-linecap="round" stroke-linejoin="round"/><path d="M21.91 42.11q2 -8 12 -8" fill="none" stroke="#bbe0ca" stroke-width="3" stroke-linecap="round" stroke-linejoin="round"/><path d="M70.08 27.3Q72.82 31.32 69.54 35.11Q66.25 38.9 65.5 43.52Q64.76 48.14 60.46 49.65Q56.16 51.17 52.05 52.25Q47.94 53.33 43.46 53.15Q38.97 52.97 35.76 49.85Q32.55 46.72 29.03 43.66Q25.52 40.61 24.64 35.96Q23.76 31.32 26.07 27.27Q28.37 23.22 29.59 18.7Q30.8 14.18 34.64 11.32Q38.47 8.46 43.21 9.91Q47.94 11.36 51.77 12.09Q55.61 12.81 58.8 15.04Q62 17.27 64.67 20.28Q67.34 23.29 70.08 27.3Z" fill="#509a98" stroke="#475865" stroke-width="1.5" stroke-linecap="round" stroke-linejoin="round"/><path d="M61.64 23.03Q62.43 26.32 61.8 29.68Q61.18 33.05 58.74 35.36Q56.3 37.68 54.03 40.24Q51.77 42.8 48.35 44.13Q44.94 45.47 41.38 44.5Q37.81 43.54 35.67 40.64Q33.53 37.73 31.91 35.06Q30.29 32.39 29.21 29.36Q28.13 26.32 29.01 23.2Q29.89 20.09 31.38 17.17Q32.87 14.25 35.67 12.47Q38.47 10.7 41.7 9.76Q44.94 8.82 48.67 8.56Q52.41 8.3 54.65 11.34Q56.88 14.38 58.87 17.05Q60.85 19.73 61.64 23.03Z" fill="#79beb0" stroke="none" stroke-width="1.5" stroke-linecap="round" stroke-linejoin="round"/><path d="M35.94 25.32q2 -8 12 -8" fill="none" stroke="#bbe0ca" stroke-width="3" stroke-linecap="round" stroke-linejoin="round"/><path d="M92.01 22.92Q92.55 27.47 92.28 32.14Q92.01 36.81 88.27 39.66Q84.52 42.51 80.99 44.63Q77.46 46.75 73.47 48.64Q69.48 50.53 64.88 50.1Q60.29 49.66 56.35 47.1Q52.41 44.54 50.99 40.13Q49.57 35.72 47.11 31.6Q44.65 27.47 46.43 23.07Q48.22 18.67 50.26 14.48Q52.3 10.3 56.25 7.68Q60.2 5.06 64.84 5.75Q69.48 6.44 73.79 6.54Q78.11 6.65 81.96 8.89Q85.81 11.14 88.64 14.75Q91.47 18.36 92.01 22.92Z" fill="#509a98" stroke="#475865" stroke-width="1.5" stroke-linecap="round" stroke-linejoin="round"/><path d="M81.97 19.42Q82.74 22.47 83.3 26.07Q83.86 29.67 82.17 33.07Q80.48 36.47 76.49 36.75Q72.51 37.04 69.49 39.5Q66.48 41.96 63.38 39.7Q60.28 37.44 57.96 35.37Q55.65 33.3 53.17 31.16Q50.69 29.01 50.02 25.74Q49.35 22.47 50.34 19.33Q51.32 16.2 51.93 12.36Q52.53 8.52 55.88 6.74Q59.22 4.96 62.85 5.63Q66.48 6.3 69.9 6.12Q73.33 5.94 76.23 7.88Q79.13 9.82 80.16 13.1Q81.2 16.37 81.97 19.42Z" fill="#79beb0" stroke="none" stroke-width="1.5" stroke-linecap="round" stroke-linejoin="round"/><path d="M57.48 21.47q2 -8 12 -8" fill="none" stroke="#bbe0ca" stroke-width="3" stroke-linecap="round" stroke-linejoin="round"/><path d="M110.08 34.03Q110.79 38.36 109.48 42.44Q108.16 46.52 105.55 49.68Q102.94 52.84 100.18 56.44Q97.43 60.03 92.94 61.44Q88.46 62.85 84.27 60.7Q80.09 58.55 75.86 56.87Q71.63 55.19 69.09 51.31Q66.55 47.43 67.08 42.9Q67.6 38.36 66.62 33.64Q65.64 28.91 69.53 26.12Q73.42 23.33 76.66 20.51Q79.89 17.69 84.17 16.21Q88.46 14.74 93.27 14.93Q98.08 15.12 100.46 19.54Q102.85 23.97 106.1 26.84Q109.36 29.7 110.08 34.03Z" fill="#509a98" stroke="#475865" stroke-width="1.5" stroke-linecap="round" stroke-linejoin="round"/><path d="M102.45 29.93Q102.87 33.36 101.25 36.3Q99.62 39.23 99.15 42.91Q98.68 46.59 95.83 49.06Q92.98 51.54 89.22 51.91Q85.46 52.29 82.48 50Q79.51 47.72 76.82 46.2Q74.13 44.69 72.44 42.07Q70.76 39.45 68.34 36.41Q65.93 33.36 67.51 29.97Q69.1 26.59 70.6 23.3Q72.1 20.01 75.47 18.69Q78.83 17.38 82.14 16.93Q85.46 16.47 88.4 17.8Q91.35 19.12 94.57 20.07Q97.79 21.02 99.91 23.76Q102.03 26.49 102.45 29.93Z" fill="#79beb0" stroke="none" stroke-width="1.5" stroke-linecap="round" stroke-linejoin="round"/><path d="M76.46 32.36q2 -8 12 -8" fill="none" stroke="#bbe0ca" stroke-width="3" stroke-linecap="round" stroke-linejoin="round"/><path d="M83.99 47.29Q85.22 52 83.42 56.48Q81.62 60.95 80.31 65.98Q79 71 73.97 72.3Q68.95 73.61 64.47 73.78Q60 73.96 55.42 74.04Q50.83 74.13 46.35 72.14Q41.86 70.14 39.35 65.86Q36.84 61.59 35.3 56.8Q33.77 52 35.04 47.1Q36.32 42.19 40.23 39.16Q44.14 36.14 47.4 32.8Q50.66 29.46 55.33 28.86Q60 28.27 65.01 28.03Q70.03 27.79 72.67 32.24Q75.31 36.69 79.03 39.63Q82.75 42.58 83.99 47.29Z" fill="#509a98" stroke="#536478" stroke-width="1.5" stroke-linecap="round" stroke-linejoin="round"/><path d="M74.45 42.73Q76.09 46 76.7 50.21Q77.31 54.41 74.76 57.81Q72.21 61.21 68.15 62.15Q64.08 63.09 60.54 64.58Q57 66.07 53.05 65.57Q49.1 65.07 46.76 61.82Q44.43 58.57 42.61 55.64Q40.8 52.71 39.61 49.35Q38.41 46 38.02 41.99Q37.63 37.98 39.68 34.36Q41.74 30.74 45.58 29.22Q49.42 27.7 53.21 27.39Q57 27.09 60.65 27.73Q64.3 28.38 68 29.84Q71.7 31.3 72.25 35.38Q72.8 39.45 74.45 42.73Z" fill="#79beb0" stroke="none" stroke-width="1.5" stroke-linecap="round" stroke-linejoin="round"/><path d="M63.11 47.09q3 -4 6 -2" fill="none" stroke="#bbe0ca" stroke-width="1.5" stroke-linecap="round" stroke-linejoin="round"/><path d="M52.77 65.3q3 -4 6 -2" fill="none" stroke="#bbe0ca" stroke-width="1.5" stroke-linecap="round" stroke-linejoin="round"/><path d="M65.46 68.14q3 -4 6 -2" fill="none" stroke="#bbe0ca" stroke-width="1.5" stroke-linecap="round" stroke-linejoin="round"/><path d="M56.76 38.37q3 -4 6 -2" fill="none" stroke="#bbe0ca" stroke-width="1.5" stroke-linecap="round" stroke-linejoin="round"/><path d="M69.51 39.62q3 -4 6 -2" fill="none" stroke="#bbe0ca" stroke-width="1.5" stroke-linecap="round" stroke-linejoin="round"/><path d="M64.24 70.27q3 -4 6 -2" fill="none" stroke="#bbe0ca" stroke-width="1.5" stroke-linecap="round" stroke-linejoin="round"/><path d="M54.54 38.06q3 -4 6 -2" fill="none" stroke="#bbe0ca" stroke-width="1.5" stroke-linecap="round" stroke-linejoin="round"/><path d="M82.27 23.74q3 -4 6 -2" fill="none" stroke="#bbe0ca" stroke-width="1.5" stroke-linecap="round" stroke-linejoin="round"/><path d="M84.91 24.26q3 -4 6 -2" fill="none" stroke="#bbe0ca" stroke-width="1.5" stroke-linecap="round" stroke-linejoin="round"/><path d="M77.15 77.97q3 -4 6 -2" fill="none" stroke="#bbe0ca" stroke-width="1.5" stroke-linecap="round" stroke-linejoin="round"/><path d="M53.7 60.72q3 -4 6 -2" fill="none" stroke="#bbe0ca" stroke-width="1.5" stroke-linecap="round" stroke-linejoin="round"/><path d="M94.27 57.96q3 -4 6 -2" fill="none" stroke="#bbe0ca" stroke-width="1.5" stroke-linecap="round" stroke-linejoin="round"/><path d="M82.5 64.15q3 -4 6 -2" fill="none" stroke="#bbe0ca" stroke-width="1.5" stroke-linecap="round" stroke-linejoin="round"/><path d="M67.08 71.2q3 -4 6 -2" fill="none" stroke="#bbe0ca" stroke-width="1.5" stroke-linecap="round" stroke-linejoin="round"/><path d="M95.17 76.98q3 -4 6 -2" fill="none" stroke="#bbe0ca" stroke-width="1.5" stroke-linecap="round" stroke-linejoin="round"/><path d="M87.57 82.05q3 -4 6 -2" fill="none" stroke="#bbe0ca" stroke-width="1.5" stroke-linecap="round" stroke-linejoin="round"/></g><mask id="wear" maskUnits="userSpaceOnUse" x="0" y="0" width="128" height="128"><use href="#art" filter="url(#white)"/></mask></defs><use href="#art"/></svg>