<svg xmlns="http://www.w3.org/2000/svg" width="128" height="128" viewBox="0 0 128 128"><title>dark — archway</title><defs><linearGradient id="stone" x2=".7" y2="1"><stop stop-color="#a4a19b"/><stop offset=".5" stop-color="#68686b"/><stop offset="1" stop-color="#393e44"/></linearGradient><linearGradient id="wood" x2="0" y2="1"><stop stop-color="#887257"/><stop offset=".5" stop-color="#564639"/><stop offset="1" stop-color="#2e2825"/></linearGradient><linearGradient id="roof" x2="1" y2=".3"><stop stop-color="#9d8870"/><stop offset=".5" stop-color="#654e43"/><stop offset="1" stop-color="#302c2d"/></linearGradient><linearGradient id="cloth" x2=".5" y2="1"><stop stop-color="#8f8a80"/><stop offset=".5" stop-color="#6c6b64"/><stop offset="1" stop-color="#494b49"/></linearGradient><filter id="white"><feColorMatrix type="matrix" values="0 0 0 0 1 0 0 0 0 1 0 0 0 0 1 0 0 0 1 0"/></filter><g id="art"><rect x="10" y="30" width="27" height="71" rx="2" fill="url(#stone)" stroke="#373636" stroke-width="2"/><rect x="91" y="30" width="27" height="71" rx="2" fill="url(#stone)" stroke="#373636" stroke-width="2"/><path d="M24 36Q26 9 64 9Q100 10 105 36L87 39Q84 27 67 27L61 20 56 29Q40 28 39 40Z" fill="url(#stone)" stroke="#373636" stroke-width="2" stroke-linejoin="round" stroke-linecap="round"/><path d="M14 48H34M14 67H34M14 87H34M94 48H114M94 67H114M94 87H114M42 18l5 11M80 17l-4 11" fill="none" stroke="#414243" stroke-width="2" stroke-linejoin="round" stroke-linecap="round"/><g transform="translate(60 72) scale(0.45)"><path d="M-14 -9L-3 -16 15 -10 18 5 7 15 -13 9Z" fill="url(#stone)" stroke="#373636" stroke-width="2" stroke-linejoin="round" stroke-linecap="round"/><path d="M-14 -9L1 -4 15 -10M1 -4L7 15" fill="none" stroke="#8f8d8a" stroke-width="1" stroke-linejoin="round" stroke-linecap="round"/></g><path d="M46 38l6 7 -3 6 7 9m-4 -15 9 1" fill="none" stroke="#29252b" stroke-width="1.9" stroke-linecap="round" stroke-linejoin="round"/><path d="M74 75l6 7 -3 6 7 9m-4 -15 9 1" fill="none" stroke="#29252b" stroke-width="1.9" stroke-linecap="round" stroke-linejoin="round"/><path d="M29 84l7 -5 11 3" fill="none" stroke="#768068" stroke-width="2" stroke-linecap="round" stroke-linejoin="round"/></g><mask id="wear" maskUnits="userSpaceOnUse" x="0" y="0" width="128" height="128"><use href="#art" filter="url(#white)"/></mask></defs><use href="#art"/><g mask="url(#wear)" opacity=".42"><path d="M81.32 8.98l2.83 -0.99" fill="none" stroke="#b4aa92" stroke-width="0.6" stroke-linecap="round" stroke-linejoin="round"/><path d="M100.39 31.12l3.54 0.83" fill="none" stroke="#1e2026" stroke-width="0.6" stroke-linecap="round" stroke-linejoin="round"/><path d="M85.58 22.64l3.2 -0.32" fill="none" stroke="#1e2026" stroke-width="0.6" stroke-linecap="round" stroke-linejoin="round"/><path d="M99.17 120.43l4.34 0.52" fill="none" stroke="#b4aa92" stroke-width="0.6" stroke-linecap="round" stroke-linejoin="round"/><path d="M69.8 64.6l4.96 -0.6" fill="none" stroke="#1e2026" stroke-width="0.6" stroke-linecap="round" stroke-linejoin="round"/><path d="M38.88 78.26l3.86 -0.94" fill="none" stroke="#1e2026" stroke-width="0.6" stroke-linecap="round" stroke-linejoin="round"/><path d="M21.19 122.97l4 -0.9" fill="none" stroke="#b4aa92" stroke-width="0.6" stroke-linecap="round" stroke-linejoin="round"/><path d="M73.57 3.75l3.05 -0.26" fill="none" stroke="#1e2026" stroke-width="0.6" stroke-linecap="round" stroke-linejoin="round"/><path d="M45.72 13.74l1.15 0.5" fill="none" stroke="#1e2026" stroke-width="0.6" stroke-linecap="round" stroke-linejoin="round"/><path d="M55.18 48.52l1.01 -0.24" fill="none" stroke="#b4aa92" stroke-width="0.6" stroke-linecap="round" stroke-linejoin="round"/><path d="M72.37 15.98l4.26 -0.44" fill="none" stroke="#1e2026" stroke-width="0.6" stroke-linecap="round" stroke-linejoin="round"/><path d="M105.79 47.9l1.27 0.56" fill="none" stroke="#1e2026" stroke-width="0.6" stroke-linecap="round" stroke-linejoin="round"/><path d="M77.37 75.11l4.48 0.59" fill="none" stroke="#b4aa92" stroke-width="0.6" stroke-linecap="round" stroke-linejoin="round"/><path d="M45.86 24.23l4.17 0.68" fill="none" stroke="#1e2026" stroke-width="0.6" stroke-linecap="round" stroke-linejoin="round"/><path d="M60.46 6.15l2.89 0.95" fill="none" stroke="#1e2026" stroke-width="0.6" stroke-linecap="round" stroke-linejoin="round"/><path d="M110.47 26.04l1.57 -0.7" fill="none" stroke="#b4aa92" stroke-width="0.6" stroke-linecap="round" stroke-linejoin="round"/><path d="M29.14 57l3.28 0.34" fill="none" stroke="#1e2026" stroke-width="0.6" stroke-linecap="round" stroke-linejoin="round"/><path d="M9.6 71.36l1.84 0.36" fill="none" stroke="#1e2026" stroke-width="0.6" stroke-linecap="round" stroke-linejoin="round"/><path d="M118.93 39.61l3.23 0.83" fill="none" stroke="#b4aa92" stroke-width="0.6" stroke-linecap="round" stroke-linejoin="round"/><path d="M44.36 66.93l4.98 -0.65" fill="none" stroke="#1e2026" stroke-width="0.6" stroke-linecap="round" stroke-linejoin="round"/><path d="M81.59 101.34l3.44 -0.62" fill="none" stroke="#1e2026" stroke-width="0.6" stroke-linecap="round" stroke-linejoin="round"/><path d="M55.23 87.49l4.14 0.71" fill="none" stroke="#b4aa92" stroke-width="0.6" stroke-linecap="round" stroke-linejoin="round"/><path d="M61.39 64.1l3.27 -0.93" fill="none" stroke="#1e2026" stroke-width="0.6" stroke-linecap="round" stroke-linejoin="round"/><path d="M42.34 118.98l1.25 -0.2" fill="none" stroke="#1e2026" stroke-width="0.6" stroke-linecap="round" stroke-linejoin="round"/><path d="M99.36 19.69l2.61 0.94" fill="none" stroke="#b4aa92" stroke-width="0.6" stroke-linecap="round" stroke-linejoin="round"/><path d="M25.68 33.84l1.03 -0.36" fill="none" stroke="#1e2026" stroke-width="0.6" stroke-linecap="round" stroke-linejoin="round"/><path d="M29.54 5l1.9 0.43" fill="none" stroke="#1e2026" stroke-width="0.6" stroke-linecap="round" stroke-linejoin="round"/><path d="M41.4 54.22l3.12 0.07" fill="none" stroke="#b4aa92" stroke-width="0.6" stroke-linecap="round" stroke-linejoin="round"/><path d="M23.23 37.24l4.49 0.48" fill="none" stroke="#1e2026" stroke-width="0.6" stroke-linecap="round" stroke-linejoin="round"/><path d="M18.01 39.25l4.57 -0.29" fill="none" stroke="#1e2026" stroke-width="0.6" stroke-linecap="round" stroke-linejoin="round"/><path d="M117.24 125.28l1.19 -0.77" fill="none" stroke="#b4aa92" stroke-width="0.6" stroke-linecap="round" stroke-linejoin="round"/><path d="M44.68 28.29l4.53 0.5" fill="none" stroke="#1e2026" stroke-width="0.6" stroke-linecap="round" stroke-linejoin="round"/><path d="M6.13 0.79l1.07 0.33" fill="none" stroke="#1e2026" stroke-width="0.6" stroke-linecap="round" stroke-linejoin="round"/><path d="M7.42 120.17l3.17 0.75" fill="none" stroke="#b4aa92" stroke-width="0.6" stroke-linecap="round" stroke-linejoin="round"/><path d="M122.46 105.58l4.6 -0.06" fill="none" stroke="#1e2026" stroke-width="0.6" stroke-linecap="round" stroke-linejoin="round"/><path d="M1.42 72.47l2.91 -0.98" fill="none" stroke="#1e2026" stroke-width="0.6" stroke-linecap="round" stroke-linejoin="round"/><path d="M37.07 122.78l2.88 0.27" fill="none" stroke="#b4aa92" stroke-width="0.6" stroke-linecap="round" stroke-linejoin="round"/><path d="M111.22 28.7l3.84 0.45" fill="none" stroke="#1e2026" stroke-width="0.6" stroke-linecap="round" stroke-linejoin="round"/><path d="M67.29 44.13l3.27 -0.17" fill="none" stroke="#1e2026" stroke-width="0.6" stroke-linecap="round" stroke-linejoin="round"/><path d="M71 69.65l1.41 -0.22" fill="none" stroke="#b4aa92" stroke-width="0.6" stroke-linecap="round" stroke-linejoin="round"/><path d="M77.22 61.25l1.2 0.22" fill="none" stroke="#1e2026" stroke-width="0.6" stroke-linecap="round" stroke-linejoin="round"/><path d="M84.84 124.56l2.42 -0.98" fill="none" stroke="#1e2026" stroke-width="0.6" stroke-linecap="round" stroke-linejoin="round"/><path d="M77.95 48.81l2.23 -0.4" fill="none" stroke="#b4aa92" stroke-width="0.6" stroke-linecap="round" stroke-linejoin="round"/><path d="M118.94 114.38l3.15 -0.29" fill="none" stroke="#1e2026" stroke-width="0.6" stroke-linecap="round" stroke-linejoin="round"/><path d="M67.85 47.89l2.38 0.79" fill="none" stroke="#1e2026" stroke-width="0.6" stroke-linecap="round" stroke-linejoin="round"/><path d="M97.86 71.06l1.86 -0.19" fill="none" stroke="#b4aa92" stroke-width="0.6" stroke-linecap="round" stroke-linejoin="round"/><path d="M8.79 85.12l2.7 -0.04" fill="none" stroke="#1e2026" stroke-width="0.6" stroke-linecap="round" stroke-linejoin="round"/><path d="M108.84 104.78l1.46 -0.79" fill="none" stroke="#1e2026" stroke-width="0.6" stroke-linecap="round" stroke-linejoin="round"/><path d="M66.39 96l2.06 -0.03" fill="none" stroke="#b4aa92" stroke-width="0.6" stroke-linecap="round" stroke-linejoin="round"/><path d="M101.96 91.19l2.46 -0.08" fill="none" stroke="#1e2026" stroke-width="0.6" stroke-linecap="round" stroke-linejoin="round"/><path d="M90.28 80.16l4.27 0.31" fill="none" stroke="#1e2026" stroke-width="0.6" stroke-linecap="round" stroke-linejoin="round"/><path d="M110.47 102.65l2.17 0.76" fill="none" stroke="#b4aa92" stroke-width="0.6" stroke-linecap="round" stroke-linejoin="round"/><path d="M126.36 104.53l3.37 -0.28" fill="none" stroke="#1e2026" stroke-width="0.6" stroke-linecap="round" stroke-linejoin="round"/><path d="M94.96 47.53l4.12 0.84" fill="none" stroke="#1e2026" stroke-width="0.6" stroke-linecap="round" stroke-linejoin="round"/><path d="M41.02 26.68l3.22 -0.66" fill="none" stroke="#b4aa92" stroke-width="0.6" stroke-linecap="round" stroke-linejoin="round"/><path d="M51.7 53.38l1.8 -0.49" fill="none" stroke="#1e2026" stroke-width="0.6" stroke-linecap="round" stroke-linejoin="round"/><path d="M49.42 90.02l3.28 0.6" fill="none" stroke="#1e2026" stroke-width="0.6" stroke-linecap="round" stroke-linejoin="round"/><path d="M0.8 58.28l4.58 -0.93" fill="none" stroke="#b4aa92" stroke-width="0.6" stroke-linecap="round" stroke-linejoin="round"/><path d="M99.72 87.06l2.73 -0.36" fill="none" stroke="#1e2026" stroke-width="0.6" stroke-linecap="round" stroke-linejoin="round"/><path d="M110.53 18l1.89 -0.03" fill="none" stroke="#1e2026" stroke-width="0.6" stroke-linecap="round" stroke-linejoin="round"/><path d="M33.35 34.66l2.76 0.41" fill="none" stroke="#b4aa92" stroke-width="0.6" stroke-linecap="round" stroke-linejoin="round"/><path d="M61.53 89.3l1.68 0.75" fill="none" stroke="#1e2026" stroke-width="0.6" stroke-linecap="round" stroke-linejoin="round"/><path d="M9.23 57.29l3.15 0.35" fill="none" stroke="#1e2026" stroke-width="0.6" stroke-linecap="round" stroke-linejoin="round"/><path d="M83.09 21.16l3.14 0.56" fill="none" stroke="#b4aa92" stroke-width="0.6" stroke-linecap="round" stroke-linejoin="round"/><path d="M40.06 118.25l1.08 0.78" fill="none" stroke="#1e2026" stroke-width="0.6" stroke-linecap="round" stroke-linejoin="round"/><path d="M77.36 58.03l3.61 0.27" fill="none" stroke="#1e2026" stroke-width="0.6" stroke-linecap="round" stroke-linejoin="round"/><path d="M48.53 110.98l4.22 -0.21" fill="none" stroke="#b4aa92" stroke-width="0.6" stroke-linecap="round" stroke-linejoin="round"/><path d="M31.63 27.12l3.78 0.29" fill="none" stroke="#1e2026" stroke-width="0.6" stroke-linecap="round" stroke-linejoin="round"/><path d="M59.59 54.23l2.03 -0.15" fill="none" stroke="#1e2026" stroke-width="0.6" stroke-linecap="round" stroke-linejoin="round"/><path d="M54.59 65.58l3.15 0.91" fill="none" stroke="#b4aa92" stroke-width="0.6" stroke-linecap="round" stroke-linejoin="round"/><path d="M16.7 7.38l3.35 0.04" fill="none" stroke="#1e2026" stroke-width="0.6" stroke-linecap="round" stroke-linejoin="round"/><path d="M36.54 43.8l1.72 -0.63" fill="none" stroke="#1e2026" stroke-width="0.6" stroke-linecap="round" stroke-linejoin="round"/><path d="M118.09 89.65l4.2 0.85" fill="none" stroke="#b4aa92" stroke-width="0.6" stroke-linecap="round" stroke-linejoin="round"/><path d="M85.67 116.65l3.93 -0.54" fill="none" stroke="#1e2026" stroke-width="0.6" stroke-linecap="round" stroke-linejoin="round"/><path d="M8.97 91.36l1.87 -0.37" fill="none" stroke="#1e2026" stroke-width="0.6" stroke-linecap="round" stroke-linejoin="round"/><path d="M76.3 98.72l4.87 -0.18" fill="none" stroke="#b4aa92" stroke-width="0.6" stroke-linecap="round" stroke-linejoin="round"/><path d="M29.84 85.19l3.22 0.72" fill="none" stroke="#1e2026" stroke-width="0.6" stroke-linecap="round" stroke-linejoin="round"/><path d="M101.15 95.58l2.7 0.84" fill="none" stroke="#1e2026" stroke-width="0.6" stroke-linecap="round" stroke-linejoin="round"/><path d="M40.69 117.42l3.26 0.1" fill="none" stroke="#b4aa92" stroke-width="0.6" stroke-linecap="round" stroke-linejoin="round"/><path d="M35.55 87.02l1.36 0.13" fill="none" stroke="#1e2026" stroke-width="0.6" stroke-linecap="round" stroke-linejoin="round"/><path d="M45.26 3.16l1.98 0.78" fill="none" stroke="#1e2026" stroke-width="0.6" stroke-linecap="round" stroke-linejoin="round"/><path d="M5.73 126.33l3.52 0.73" fill="none" stroke="#b4aa92" stroke-width="0.6" stroke-linecap="round" stroke-linejoin="round"/><path d="M55.32 121.66l3.41 0.68" fill="none" stroke="#1e2026" stroke-width="0.6" stroke-linecap="round" stroke-linejoin="round"/><path d="M97.04 3.49l1.77 -0.16" fill="none" stroke="#1e2026" stroke-width="0.6" stroke-linecap="round" stroke-linejoin="round"/><path d="M90.88 11.5l4.94 -0.69" fill="none" stroke="#b4aa92" stroke-width="0.6" stroke-linecap="round" stroke-linejoin="round"/><path d="M70.23 36.49l4.08 0.21" fill="none" stroke="#1e2026" stroke-width="0.6" stroke-linecap="round" stroke-linejoin="round"/><path d="M60.46 13.85l4.88 0.88" fill="none" stroke="#1e2026" stroke-width="0.6" stroke-linecap="round" stroke-linejoin="round"/><path d="M109.65 46.53l1.44 0.19" fill="none" stroke="#b4aa92" stroke-width="0.6" stroke-linecap="round" stroke-linejoin="round"/><path d="M33.35 75.75l4.31 0.21" fill="none" stroke="#1e2026" stroke-width="0.6" stroke-linecap="round" stroke-linejoin="round"/><path d="M43.57 101.28l1.89 0.35" fill="none" stroke="#1e2026" stroke-width="0.6" stroke-linecap="round" stroke-linejoin="round"/><path d="M7.84 65.34l3.12 -0.87" fill="none" stroke="#b4aa92" stroke-width="0.6" stroke-linecap="round" stroke-linejoin="round"/><path d="M108.38 82.15l2.64 0.75" fill="none" stroke="#1e2026" stroke-width="0.6" stroke-linecap="round" stroke-linejoin="round"/><path d="M71.46 63.1l2.36 -0.4" fill="none" stroke="#1e2026" stroke-width="0.6" stroke-linecap="round" stroke-linejoin="round"/><path d="M56.84 123.53l4.58 0.86" fill="none" stroke="#b4aa92" stroke-width="0.6" stroke-linecap="round" stroke-linejoin="round"/><path d="M57.29 117.13l4.76 -0.6" fill="none" stroke="#1e2026" stroke-width="0.6" stroke-linecap="round" stroke-linejoin="round"/></g></svg>