<svg xmlns="http://www.w3.org/2000/svg" width="128" height="128" viewBox="0 0 128 128"><title>dark — roof-shop</title><defs><linearGradient id="stone" x2=".7" y2="1"><stop stop-color="#a4a19b"/><stop offset=".5" stop-color="#68686b"/><stop offset="1" stop-color="#393e44"/></linearGradient><linearGradient id="wood" x2="0" y2="1"><stop stop-color="#887257"/><stop offset=".5" stop-color="#564639"/><stop offset="1" stop-color="#2e2825"/></linearGradient><linearGradient id="roof" x2="1" y2=".3"><stop stop-color="#9d8870"/><stop offset=".5" stop-color="#654e43"/><stop offset="1" stop-color="#302c2d"/></linearGradient><linearGradient id="cloth" x2=".5" y2="1"><stop stop-color="#8f8a80"/><stop offset=".5" stop-color="#6c6b64"/><stop offset="1" stop-color="#494b49"/></linearGradient><filter id="white"><feColorMatrix type="matrix" values="0 0 0 0 1 0 0 0 0 1 0 0 0 0 1 0 0 0 1 0"/></filter><g id="art"><rect x="14" y="14" width="100" height="100" rx="3" fill="#4b4441" stroke="#302d2e" stroke-width="2"/><path d="M14 18L64 30 64 99 14 112Z" fill="#525d64" stroke="#373636" stroke-width="2" stroke-linejoin="round" stroke-linecap="round"/><path d="M114 18L64 30 64 99 114 112Z" fill="#313b45" stroke="#373636" stroke-width="2" stroke-linejoin="round" stroke-linecap="round"/><path d="M14 18L64 30 114 18Z" fill="#818484" stroke="#373636" stroke-width="2" stroke-linejoin="round" stroke-linecap="round"/><path d="M14 112L64 99 114 112Z" fill="#3c4043" stroke="#373636" stroke-width="2" stroke-linejoin="round" stroke-linecap="round"/><path d="M16 34L62 37M66 37L112 34" fill="none" stroke="#8a8d8b" stroke-width="1.3" stroke-linejoin="round" stroke-linecap="round"/><path d="M24 34v7" fill="none" stroke="#33383e" stroke-width="1" stroke-linejoin="round" stroke-linecap="round"/><path d="M39 34v7" fill="none" stroke="#33383e" stroke-width="1" stroke-linejoin="round" stroke-linecap="round"/><path d="M54 34v7" fill="none" stroke="#33383e" stroke-width="1" stroke-linejoin="round" stroke-linecap="round"/><path d="M69 34v7" fill="none" stroke="#33383e" stroke-width="1" stroke-linejoin="round" stroke-linecap="round"/><path d="M84 34v7" fill="none" stroke="#33383e" stroke-width="1" stroke-linejoin="round" stroke-linecap="round"/><path d="M99 34v7" fill="none" stroke="#33383e" stroke-width="1" stroke-linejoin="round" stroke-linecap="round"/><path d="M16 44L62 47M66 47L112 44" fill="none" stroke="#8a8d8b" stroke-width="1.3" stroke-linejoin="round" stroke-linecap="round"/><path d="M24 44v7" fill="none" stroke="#33383e" stroke-width="1" stroke-linejoin="round" stroke-linecap="round"/><path d="M39 44v7" fill="none" stroke="#33383e" stroke-width="1" stroke-linejoin="round" stroke-linecap="round"/><path d="M54 44v7" fill="none" stroke="#33383e" stroke-width="1" stroke-linejoin="round" stroke-linecap="round"/><path d="M69 44v7" fill="none" stroke="#33383e" stroke-width="1" stroke-linejoin="round" stroke-linecap="round"/><path d="M84 44v7" fill="none" stroke="#33383e" stroke-width="1" stroke-linejoin="round" stroke-linecap="round"/><path d="M99 44v7" fill="none" stroke="#33383e" stroke-width="1" stroke-linejoin="round" stroke-linecap="round"/><path d="M16 54L62 57M66 57L112 54" fill="none" stroke="#8a8d8b" stroke-width="1.3" stroke-linejoin="round" stroke-linecap="round"/><path d="M24 54v7" fill="none" stroke="#33383e" stroke-width="1" stroke-linejoin="round" stroke-linecap="round"/><path d="M39 54v7" fill="none" stroke="#33383e" stroke-width="1" stroke-linejoin="round" stroke-linecap="round"/><path d="M54 54v7" fill="none" stroke="#33383e" stroke-width="1" stroke-linejoin="round" stroke-linecap="round"/><path d="M69 54v7" fill="none" stroke="#33383e" stroke-width="1" stroke-linejoin="round" stroke-linecap="round"/><path d="M84 54v7" fill="none" stroke="#33383e" stroke-width="1" stroke-linejoin="round" stroke-linecap="round"/><path d="M99 54v7" fill="none" stroke="#33383e" stroke-width="1" stroke-linejoin="round" stroke-linecap="round"/><path d="M16 64L62 67M66 67L112 64" fill="none" stroke="#8a8d8b" stroke-width="1.3" stroke-linejoin="round" stroke-linecap="round"/><path d="M24 64v7" fill="none" stroke="#33383e" stroke-width="1" stroke-linejoin="round" stroke-linecap="round"/><path d="M39 64v7" fill="none" stroke="#33383e" stroke-width="1" stroke-linejoin="round" stroke-linecap="round"/><path d="M54 64v7" fill="none" stroke="#33383e" stroke-width="1" stroke-linejoin="round" stroke-linecap="round"/><path d="M69 64v7" fill="none" stroke="#33383e" stroke-width="1" stroke-linejoin="round" stroke-linecap="round"/><path d="M84 64v7" fill="none" stroke="#33383e" stroke-width="1" stroke-linejoin="round" stroke-linecap="round"/><path d="M99 64v7" fill="none" stroke="#33383e" stroke-width="1" stroke-linejoin="round" stroke-linecap="round"/><path d="M16 74L62 77M66 77L112 74" fill="none" stroke="#8a8d8b" stroke-width="1.3" stroke-linejoin="round" stroke-linecap="round"/><path d="M24 74v7" fill="none" stroke="#33383e" stroke-width="1" stroke-linejoin="round" stroke-linecap="round"/><path d="M39 74v7" fill="none" stroke="#33383e" stroke-width="1" stroke-linejoin="round" stroke-linecap="round"/><path d="M54 74v7" fill="none" stroke="#33383e" stroke-width="1" stroke-linejoin="round" stroke-linecap="round"/><path d="M69 74v7" fill="none" stroke="#33383e" stroke-width="1" stroke-linejoin="round" stroke-linecap="round"/><path d="M84 74v7" fill="none" stroke="#33383e" stroke-width="1" stroke-linejoin="round" stroke-linecap="round"/><path d="M99 74v7" fill="none" stroke="#33383e" stroke-width="1" stroke-linejoin="round" stroke-linecap="round"/><path d="M16 84L62 87M66 87L112 84" fill="none" stroke="#8a8d8b" stroke-width="1.3" stroke-linejoin="round" stroke-linecap="round"/><path d="M24 84v7" fill="none" stroke="#33383e" stroke-width="1" stroke-linejoin="round" stroke-linecap="round"/><path d="M39 84v7" fill="none" stroke="#33383e" stroke-width="1" stroke-linejoin="round" stroke-linecap="round"/><path d="M54 84v7" fill="none" stroke="#33383e" stroke-width="1" stroke-linejoin="round" stroke-linecap="round"/><path d="M69 84v7" fill="none" stroke="#33383e" stroke-width="1" stroke-linejoin="round" stroke-linecap="round"/><path d="M84 84v7" fill="none" stroke="#33383e" stroke-width="1" stroke-linejoin="round" stroke-linecap="round"/><path d="M99 84v7" fill="none" stroke="#33383e" stroke-width="1" stroke-linejoin="round" stroke-linecap="round"/><path d="M16 94L62 97M66 97L112 94" fill="none" stroke="#8a8d8b" stroke-width="1.3" stroke-linejoin="round" stroke-linecap="round"/><path d="M24 94v7" fill="none" stroke="#33383e" stroke-width="1" stroke-linejoin="round" stroke-linecap="round"/><path d="M39 94v7" fill="none" stroke="#33383e" stroke-width="1" stroke-linejoin="round" stroke-linecap="round"/><path d="M54 94v7" fill="none" stroke="#33383e" stroke-width="1" stroke-linejoin="round" stroke-linecap="round"/><path d="M69 94v7" fill="none" stroke="#33383e" stroke-width="1" stroke-linejoin="round" stroke-linecap="round"/><path d="M84 94v7" fill="none" stroke="#33383e" stroke-width="1" stroke-linejoin="round" stroke-linecap="round"/><path d="M99 94v7" fill="none" stroke="#33383e" stroke-width="1" stroke-linejoin="round" stroke-linecap="round"/><path d="M64 29V100" fill="none" stroke="#908f8b" stroke-width="5" stroke-linejoin="round" stroke-linecap="round"/><rect x="83" y="29" width="18" height="23" rx="2" fill="url(#stone)" stroke="#373636" stroke-width="2"/><rect x="87" y="32" width="10" height="12" rx="2" fill="#2d2d30" stroke="#373636" stroke-width="2"/><rect x="22" y="88" width="32" height="17" rx="2" fill="url(#cloth)" stroke="#373636" stroke-width="2"/><path d="M29 89v14m9 -14v14m9 -14v14" fill="none" stroke="#948f85" stroke-width="3" stroke-linejoin="round" stroke-linecap="round"/><path d="M24 49l13 4 -4 8 10 4M79 71l17 -6 -4 9" fill="none" stroke="#302a2b" stroke-width="2" stroke-linecap="round" stroke-linejoin="round"/><rect x="56" y="38" width="15" height="5" rx="1" fill="#444348" stroke="#29252b" stroke-width="1.2"/></g><mask id="wear" maskUnits="userSpaceOnUse" x="0" y="0" width="128" height="128"><use href="#art" filter="url(#white)"/></mask></defs><use href="#art"/><g mask="url(#wear)" opacity=".42"><path d="M69.37 21.62l3.05 0.77" fill="none" stroke="#b4aa92" stroke-width="0.6" stroke-linecap="round" stroke-linejoin="round"/><path d="M47.07 67.34l3.62 -0.99" fill="none" stroke="#1e2026" stroke-width="0.6" stroke-linecap="round" stroke-linejoin="round"/><path d="M73.93 99.82l1.36 0.29" fill="none" stroke="#1e2026" stroke-width="0.6" stroke-linecap="round" stroke-linejoin="round"/><path d="M34.21 77.63l4.05 -0.22" fill="none" stroke="#b4aa92" stroke-width="0.6" stroke-linecap="round" stroke-linejoin="round"/><path d="M24.64 108.03l2.25 0.11" fill="none" stroke="#1e2026" stroke-width="0.6" stroke-linecap="round" stroke-linejoin="round"/><path d="M52.17 49.84l2.82 -0.01" fill="none" stroke="#1e2026" stroke-width="0.6" stroke-linecap="round" stroke-linejoin="round"/><path d="M126.83 92.91l1.24 -0.26" fill="none" stroke="#b4aa92" stroke-width="0.6" stroke-linecap="round" stroke-linejoin="round"/><path d="M15.78 68.21l4.16 0.97" fill="none" stroke="#1e2026" stroke-width="0.6" stroke-linecap="round" stroke-linejoin="round"/><path d="M4.4 10.56l2.93 -0.17" fill="none" stroke="#1e2026" stroke-width="0.6" stroke-linecap="round" stroke-linejoin="round"/><path d="M74.58 47.98l3.49 0.28" fill="none" stroke="#b4aa92" stroke-width="0.6" stroke-linecap="round" stroke-linejoin="round"/><path d="M62.08 27.7l3.35 -0.27" fill="none" stroke="#1e2026" stroke-width="0.6" stroke-linecap="round" stroke-linejoin="round"/><path d="M59.05 88.71l3.02 0.5" fill="none" stroke="#1e2026" stroke-width="0.6" stroke-linecap="round" stroke-linejoin="round"/><path d="M103.65 95.02l4.66 0.52" fill="none" stroke="#b4aa92" stroke-width="0.6" stroke-linecap="round" stroke-linejoin="round"/><path d="M22.84 99.49l3.42 -0.38" fill="none" stroke="#1e2026" stroke-width="0.6" stroke-linecap="round" stroke-linejoin="round"/><path d="M70.23 72.32l1.97 -0.17" fill="none" stroke="#1e2026" stroke-width="0.6" stroke-linecap="round" stroke-linejoin="round"/><path d="M89.08 104.18l3.89 -0.85" fill="none" stroke="#b4aa92" stroke-width="0.6" stroke-linecap="round" stroke-linejoin="round"/><path d="M82.49 21.86l2.48 0.15" fill="none" stroke="#1e2026" stroke-width="0.6" stroke-linecap="round" stroke-linejoin="round"/><path d="M112.58 74.7l2.4 -0.25" fill="none" stroke="#1e2026" stroke-width="0.6" stroke-linecap="round" stroke-linejoin="round"/><path d="M42.94 29.53l4.92 0.81" fill="none" stroke="#b4aa92" stroke-width="0.6" stroke-linecap="round" stroke-linejoin="round"/><path d="M54.1 60.27l4.18 0.55" fill="none" stroke="#1e2026" stroke-width="0.6" stroke-linecap="round" stroke-linejoin="round"/><path d="M78.16 66.16l3.1 -0.35" fill="none" stroke="#1e2026" stroke-width="0.6" stroke-linecap="round" stroke-linejoin="round"/><path d="M42.58 100.62l2.49 0.07" fill="none" stroke="#b4aa92" stroke-width="0.6" stroke-linecap="round" stroke-linejoin="round"/><path d="M29.03 16.72l1.87 0.22" fill="none" stroke="#1e2026" stroke-width="0.6" stroke-linecap="round" stroke-linejoin="round"/><path d="M125.42 51.28l3.65 0.77" fill="none" stroke="#1e2026" stroke-width="0.6" stroke-linecap="round" stroke-linejoin="round"/><path d="M37.02 5.6l1.18 0.62" fill="none" stroke="#b4aa92" stroke-width="0.6" stroke-linecap="round" stroke-linejoin="round"/><path d="M90.71 88.83l4.25 -0.76" fill="none" stroke="#1e2026" stroke-width="0.6" stroke-linecap="round" stroke-linejoin="round"/><path d="M50.41 121.88l4.54 0.06" fill="none" stroke="#1e2026" stroke-width="0.6" stroke-linecap="round" stroke-linejoin="round"/><path d="M1.5 104.12l4.71 -0.01" fill="none" stroke="#b4aa92" stroke-width="0.6" stroke-linecap="round" stroke-linejoin="round"/><path d="M42.55 56.52l3.57 0.88" fill="none" stroke="#1e2026" stroke-width="0.6" stroke-linecap="round" stroke-linejoin="round"/><path d="M34.01 31.56l2.99 0.85" fill="none" stroke="#1e2026" stroke-width="0.6" stroke-linecap="round" stroke-linejoin="round"/><path d="M46.13 59.67l2.97 0.37" fill="none" stroke="#b4aa92" stroke-width="0.6" stroke-linecap="round" stroke-linejoin="round"/><path d="M3.93 90.34l4.64 0.08" fill="none" stroke="#1e2026" stroke-width="0.6" stroke-linecap="round" stroke-linejoin="round"/><path d="M3.38 17.87l1.56 0.1" fill="none" stroke="#1e2026" stroke-width="0.6" stroke-linecap="round" stroke-linejoin="round"/><path d="M116.62 41.68l1.02 0.99" fill="none" stroke="#b4aa92" stroke-width="0.6" stroke-linecap="round" stroke-linejoin="round"/><path d="M72.36 107.33l1.76 0.9" fill="none" stroke="#1e2026" stroke-width="0.6" stroke-linecap="round" stroke-linejoin="round"/><path d="M125.4 22.1l3.85 0.26" fill="none" stroke="#1e2026" stroke-width="0.6" stroke-linecap="round" stroke-linejoin="round"/><path d="M109.23 79.2l3.14 -0.52" fill="none" stroke="#b4aa92" stroke-width="0.6" stroke-linecap="round" stroke-linejoin="round"/><path d="M97.79 8.65l3.92 -0.1" fill="none" stroke="#1e2026" stroke-width="0.6" stroke-linecap="round" stroke-linejoin="round"/><path d="M118.42 120.76l4.34 0.68" fill="none" stroke="#1e2026" stroke-width="0.6" stroke-linecap="round" stroke-linejoin="round"/><path d="M101.75 92.19l2.13 0.73" fill="none" stroke="#b4aa92" stroke-width="0.6" stroke-linecap="round" stroke-linejoin="round"/><path d="M6.96 92.72l1.21 -0.68" fill="none" stroke="#1e2026" stroke-width="0.6" stroke-linecap="round" stroke-linejoin="round"/><path d="M91.94 22.59l4.75 -0.39" fill="none" stroke="#1e2026" stroke-width="0.6" stroke-linecap="round" stroke-linejoin="round"/><path d="M50.71 86.46l1.19 -0.32" fill="none" stroke="#b4aa92" stroke-width="0.6" stroke-linecap="round" stroke-linejoin="round"/><path d="M123.94 74.03l2.9 0.24" fill="none" stroke="#1e2026" stroke-width="0.6" stroke-linecap="round" stroke-linejoin="round"/><path d="M24.57 125.26l1.91 0.65" fill="none" stroke="#1e2026" stroke-width="0.6" stroke-linecap="round" stroke-linejoin="round"/><path d="M0.56 30.22l4.35 -0.46" fill="none" stroke="#b4aa92" stroke-width="0.6" stroke-linecap="round" stroke-linejoin="round"/><path d="M68.78 33.57l2.12 0.43" fill="none" stroke="#1e2026" stroke-width="0.6" stroke-linecap="round" stroke-linejoin="round"/><path d="M14.04 1.66l1.47 -0.22" fill="none" stroke="#1e2026" stroke-width="0.6" stroke-linecap="round" stroke-linejoin="round"/><path d="M91.16 114.26l4.79 0.91" fill="none" stroke="#b4aa92" stroke-width="0.6" stroke-linecap="round" stroke-linejoin="round"/><path d="M96.31 2.89l3.54 0.15" fill="none" stroke="#1e2026" stroke-width="0.6" stroke-linecap="round" stroke-linejoin="round"/><path d="M9.32 73.85l4.51 -0.35" fill="none" stroke="#1e2026" stroke-width="0.6" stroke-linecap="round" stroke-linejoin="round"/><path d="M65.25 81.74l1.25 0.17" fill="none" stroke="#b4aa92" stroke-width="0.6" stroke-linecap="round" stroke-linejoin="round"/><path d="M64.97 35.78l3.1 -0.5" fill="none" stroke="#1e2026" stroke-width="0.6" stroke-linecap="round" stroke-linejoin="round"/><path d="M70.95 104.59l3.41 0.53" fill="none" stroke="#1e2026" stroke-width="0.6" stroke-linecap="round" stroke-linejoin="round"/><path d="M58.12 57.68l1.53 -0.16" fill="none" stroke="#b4aa92" stroke-width="0.6" stroke-linecap="round" stroke-linejoin="round"/><path d="M89.92 93.58l2.05 -0.3" fill="none" stroke="#1e2026" stroke-width="0.6" stroke-linecap="round" stroke-linejoin="round"/><path d="M61.36 72.54l4.02 -0.56" fill="none" stroke="#1e2026" stroke-width="0.6" stroke-linecap="round" stroke-linejoin="round"/><path d="M3.37 91.91l1.56 0.06" fill="none" stroke="#b4aa92" stroke-width="0.6" stroke-linecap="round" stroke-linejoin="round"/><path d="M54.1 126.07l2.44 0.95" fill="none" stroke="#1e2026" stroke-width="0.6" stroke-linecap="round" stroke-linejoin="round"/><path d="M3.48 69.07l4.3 -0.27" fill="none" stroke="#1e2026" stroke-width="0.6" stroke-linecap="round" stroke-linejoin="round"/><path d="M12.82 13.85l4.94 -0.99" fill="none" stroke="#b4aa92" stroke-width="0.6" stroke-linecap="round" stroke-linejoin="round"/><path d="M47.6 122.08l4.31 0.01" fill="none" stroke="#1e2026" stroke-width="0.6" stroke-linecap="round" stroke-linejoin="round"/><path d="M73.32 110.65l4.82 -0.01" fill="none" stroke="#1e2026" stroke-width="0.6" stroke-linecap="round" stroke-linejoin="round"/><path d="M24.53 76.76l1.33 0.36" fill="none" stroke="#b4aa92" stroke-width="0.6" stroke-linecap="round" stroke-linejoin="round"/><path d="M124.96 63.66l1.68 -0.65" fill="none" stroke="#1e2026" stroke-width="0.6" stroke-linecap="round" stroke-linejoin="round"/><path d="M120.77 24.97l3.03 -0.82" fill="none" stroke="#1e2026" stroke-width="0.6" stroke-linecap="round" stroke-linejoin="round"/><path d="M116.94 85.7l2.79 0.64" fill="none" stroke="#b4aa92" stroke-width="0.6" stroke-linecap="round" stroke-linejoin="round"/><path d="M106.77 5.83l3.56 0.01" fill="none" stroke="#1e2026" stroke-width="0.6" stroke-linecap="round" stroke-linejoin="round"/><path d="M52.52 112.54l4.75 0.1" fill="none" stroke="#1e2026" stroke-width="0.6" stroke-linecap="round" stroke-linejoin="round"/><path d="M103.16 111.04l2.3 -0.48" fill="none" stroke="#b4aa92" stroke-width="0.6" stroke-linecap="round" stroke-linejoin="round"/><path d="M55.27 24.08l3.32 0.9" fill="none" stroke="#1e2026" stroke-width="0.6" stroke-linecap="round" stroke-linejoin="round"/><path d="M11.03 118.06l2.84 -0.94" fill="none" stroke="#1e2026" stroke-width="0.6" stroke-linecap="round" stroke-linejoin="round"/><path d="M123.35 33.68l3.6 -0.99" fill="none" stroke="#b4aa92" stroke-width="0.6" stroke-linecap="round" stroke-linejoin="round"/><path d="M38.15 59.4l4.24 -0.23" fill="none" stroke="#1e2026" stroke-width="0.6" stroke-linecap="round" stroke-linejoin="round"/><path d="M83.73 93.32l2.42 0.69" fill="none" stroke="#1e2026" stroke-width="0.6" stroke-linecap="round" stroke-linejoin="round"/><path d="M17.26 63.86l4.59 -0.52" fill="none" stroke="#b4aa92" stroke-width="0.6" stroke-linecap="round" stroke-linejoin="round"/><path d="M2.44 106.92l2.9 -0.41" fill="none" stroke="#1e2026" stroke-width="0.6" stroke-linecap="round" stroke-linejoin="round"/><path d="M76.26 109.78l4.7 -0.95" fill="none" stroke="#1e2026" stroke-width="0.6" stroke-linecap="round" stroke-linejoin="round"/><path d="M26.86 55.55l1.42 -0.51" fill="none" stroke="#b4aa92" stroke-width="0.6" stroke-linecap="round" stroke-linejoin="round"/><path d="M100.54 74.28l4.16 0.46" fill="none" stroke="#1e2026" stroke-width="0.6" stroke-linecap="round" stroke-linejoin="round"/><path d="M43.91 34.69l2.71 0.69" fill="none" stroke="#1e2026" stroke-width="0.6" stroke-linecap="round" stroke-linejoin="round"/><path d="M35.14 78.53l1.55 0.5" fill="none" stroke="#b4aa92" stroke-width="0.6" stroke-linecap="round" stroke-linejoin="round"/><path d="M50.35 75.51l3.24 -0.04" fill="none" stroke="#1e2026" stroke-width="0.6" stroke-linecap="round" stroke-linejoin="round"/><path d="M3.08 104.98l3 0.03" fill="none" stroke="#1e2026" stroke-width="0.6" stroke-linecap="round" stroke-linejoin="round"/><path d="M82.99 6.08l2.83 0.19" fill="none" stroke="#b4aa92" stroke-width="0.6" stroke-linecap="round" stroke-linejoin="round"/><path d="M111.56 38.63l2.9 0.94" fill="none" stroke="#1e2026" stroke-width="0.6" stroke-linecap="round" stroke-linejoin="round"/><path d="M92.98 120.61l4.59 -0.42" fill="none" stroke="#1e2026" stroke-width="0.6" stroke-linecap="round" stroke-linejoin="round"/><path d="M74.21 4.26l4.94 0.67" fill="none" stroke="#b4aa92" stroke-width="0.6" stroke-linecap="round" stroke-linejoin="round"/><path d="M20.04 96.77l2.97 0.56" fill="none" stroke="#1e2026" stroke-width="0.6" stroke-linecap="round" stroke-linejoin="round"/><path d="M57.39 103.69l3.37 0.43" fill="none" stroke="#1e2026" stroke-width="0.6" stroke-linecap="round" stroke-linejoin="round"/><path d="M66.69 0.85l4.25 0.24" fill="none" stroke="#b4aa92" stroke-width="0.6" stroke-linecap="round" stroke-linejoin="round"/><path d="M62.39 65.03l4.46 0.96" fill="none" stroke="#1e2026" stroke-width="0.6" stroke-linecap="round" stroke-linejoin="round"/><path d="M20.55 53.09l3.05 0.54" fill="none" stroke="#1e2026" stroke-width="0.6" stroke-linecap="round" stroke-linejoin="round"/><path d="M19.67 83.93l4.33 -0.03" fill="none" stroke="#b4aa92" stroke-width="0.6" stroke-linecap="round" stroke-linejoin="round"/><path d="M56.53 48.87l3.32 -0.09" fill="none" stroke="#1e2026" stroke-width="0.6" stroke-linecap="round" stroke-linejoin="round"/></g></svg>