<svg xmlns="http://www.w3.org/2000/svg" width="128" height="128" viewBox="0 0 128 128"><title>dark — weapon-rack</title><defs><linearGradient id="stone" x2=".7" y2="1"><stop stop-color="#a4a19b"/><stop offset=".5" stop-color="#68686b"/><stop offset="1" stop-color="#393e44"/></linearGradient><linearGradient id="wood" x2="0" y2="1"><stop stop-color="#887257"/><stop offset=".5" stop-color="#564639"/><stop offset="1" stop-color="#2e2825"/></linearGradient><linearGradient id="roof" x2="1" y2=".3"><stop stop-color="#9d8870"/><stop offset=".5" stop-color="#654e43"/><stop offset="1" stop-color="#302c2d"/></linearGradient><linearGradient id="cloth" x2=".5" y2="1"><stop stop-color="#8f8a80"/><stop offset=".5" stop-color="#6c6b64"/><stop offset="1" stop-color="#494b49"/></linearGradient><filter id="white"><feColorMatrix type="matrix" values="0 0 0 0 1 0 0 0 0 1 0 0 0 0 1 0 0 0 1 0"/></filter><g id="art"><rect x="17" y="32" width="94" height="73" rx="2" fill="url(#wood)" stroke="#373636" stroke-width="2"/><rect x="20" y="40" width="88" height="8" rx="2" fill="#7b7368" stroke="#373636" stroke-width="2"/><rect x="20" y="84" width="88" height="8" rx="2" fill="#7b7368" stroke="#373636" stroke-width="2"/><path d="M32 94V31" fill="none" stroke="#3b3532" stroke-width="5" stroke-linejoin="round" stroke-linecap="round"/><path d="M32 64V11" fill="none" stroke="#91908f" stroke-width="4" stroke-linejoin="round" stroke-linecap="round"/><path d="M25 65H39" fill="none" stroke="#887f73" stroke-width="3" stroke-linejoin="round" stroke-linecap="round"/><path d="M54 94V31" fill="none" stroke="#3b3532" stroke-width="5" stroke-linejoin="round" stroke-linecap="round"/><path d="M54 64V18" fill="none" stroke="#91908f" stroke-width="4" stroke-linejoin="round" stroke-linecap="round"/><path d="M47 65H61" fill="none" stroke="#887f73" stroke-width="3" stroke-linejoin="round" stroke-linecap="round"/><path d="M77 94V31" fill="none" stroke="#3b3532" stroke-width="5" stroke-linejoin="round" stroke-linecap="round"/><path d="M77 64V11" fill="none" stroke="#91908f" stroke-width="4" stroke-linejoin="round" stroke-linecap="round"/><path d="M70 65H84" fill="none" stroke="#887f73" stroke-width="3" stroke-linejoin="round" stroke-linecap="round"/><path d="M97 94V31" fill="none" stroke="#3b3532" stroke-width="5" stroke-linejoin="round" stroke-linecap="round"/><path d="M97 64V18" fill="none" stroke="#91908f" stroke-width="4" stroke-linejoin="round" stroke-linecap="round"/><path d="M90 65H104" fill="none" stroke="#887f73" stroke-width="3" stroke-linejoin="round" stroke-linecap="round"/><path d="M47 39l6 7 -3 6 7 9m-4 -15 9 1" fill="none" stroke="#29252b" stroke-width="1.9" stroke-linecap="round" stroke-linejoin="round"/><rect x="29" y="84" width="69" height="5" rx="1" fill="#444348" stroke="#29252b" stroke-width="1.2"/></g><mask id="wear" maskUnits="userSpaceOnUse" x="0" y="0" width="128" height="128"><use href="#art" filter="url(#white)"/></mask></defs><use href="#art"/><g mask="url(#wear)" opacity=".42"><path d="M9.32 79.3l2.67 0.61" fill="none" stroke="#b4aa92" stroke-width="0.6" stroke-linecap="round" stroke-linejoin="round"/><path d="M41.67 11.79l1.95 -0.27" fill="none" stroke="#1e2026" stroke-width="0.6" stroke-linecap="round" stroke-linejoin="round"/><path d="M32.67 120.65l2.97 0.1" fill="none" stroke="#1e2026" stroke-width="0.6" stroke-linecap="round" stroke-linejoin="round"/><path d="M97.81 57.8l4.29 -0.44" fill="none" stroke="#b4aa92" stroke-width="0.6" stroke-linecap="round" stroke-linejoin="round"/><path d="M107.17 106.94l1.75 -0.22" fill="none" stroke="#1e2026" stroke-width="0.6" stroke-linecap="round" stroke-linejoin="round"/><path d="M25.5 96.03l4.98 -0.48" fill="none" stroke="#1e2026" stroke-width="0.6" stroke-linecap="round" stroke-linejoin="round"/><path d="M71.87 124.91l1.42 0.86" fill="none" stroke="#b4aa92" stroke-width="0.6" stroke-linecap="round" stroke-linejoin="round"/><path d="M36.96 6.09l3.47 -0.67" fill="none" stroke="#1e2026" stroke-width="0.6" stroke-linecap="round" stroke-linejoin="round"/><path d="M71.95 108.6l3.72 -0.78" fill="none" stroke="#1e2026" stroke-width="0.6" stroke-linecap="round" stroke-linejoin="round"/><path d="M47.12 55.03l3.98 -0.33" fill="none" stroke="#b4aa92" stroke-width="0.6" stroke-linecap="round" stroke-linejoin="round"/><path d="M113.93 73.63l4.92 0.07" fill="none" stroke="#1e2026" stroke-width="0.6" stroke-linecap="round" stroke-linejoin="round"/><path d="M16.89 111.6l4.28 -0.67" fill="none" stroke="#1e2026" stroke-width="0.6" stroke-linecap="round" stroke-linejoin="round"/><path d="M108.92 39.44l4.21 0.53" fill="none" stroke="#b4aa92" stroke-width="0.6" stroke-linecap="round" stroke-linejoin="round"/><path d="M16.41 84.5l1.78 0.44" fill="none" stroke="#1e2026" stroke-width="0.6" stroke-linecap="round" stroke-linejoin="round"/><path d="M19.89 23.55l1.37 0.52" fill="none" stroke="#1e2026" stroke-width="0.6" stroke-linecap="round" stroke-linejoin="round"/><path d="M8.31 48.61l4.75 -0.12" fill="none" stroke="#b4aa92" stroke-width="0.6" stroke-linecap="round" stroke-linejoin="round"/><path d="M112.93 107.77l3.69 -0.3" fill="none" stroke="#1e2026" stroke-width="0.6" stroke-linecap="round" stroke-linejoin="round"/><path d="M118.91 59.26l4.9 0.77" fill="none" stroke="#1e2026" stroke-width="0.6" stroke-linecap="round" stroke-linejoin="round"/><path d="M32.45 64.52l2.12 0.48" fill="none" stroke="#b4aa92" stroke-width="0.6" stroke-linecap="round" stroke-linejoin="round"/><path d="M117.55 38.5l3.15 0.07" fill="none" stroke="#1e2026" stroke-width="0.6" stroke-linecap="round" stroke-linejoin="round"/><path d="M28.48 79.02l4.69 -0.72" fill="none" stroke="#1e2026" stroke-width="0.6" stroke-linecap="round" stroke-linejoin="round"/><path d="M23.77 117.29l4.7 0.4" fill="none" stroke="#b4aa92" stroke-width="0.6" stroke-linecap="round" stroke-linejoin="round"/><path d="M111.91 7.54l3.21 -0.2" fill="none" stroke="#1e2026" stroke-width="0.6" stroke-linecap="round" stroke-linejoin="round"/><path d="M50.6 25.8l3.29 -0.14" fill="none" stroke="#1e2026" stroke-width="0.6" stroke-linecap="round" stroke-linejoin="round"/><path d="M81.7 115.72l1.11 0.48" fill="none" stroke="#b4aa92" stroke-width="0.6" stroke-linecap="round" stroke-linejoin="round"/><path d="M11.77 91.65l2.74 0.05" fill="none" stroke="#1e2026" stroke-width="0.6" stroke-linecap="round" stroke-linejoin="round"/><path d="M40.19 96.72l2.67 0.06" fill="none" stroke="#1e2026" stroke-width="0.6" stroke-linecap="round" stroke-linejoin="round"/><path d="M113.02 6.14l3.75 0.21" fill="none" stroke="#b4aa92" stroke-width="0.6" stroke-linecap="round" stroke-linejoin="round"/><path d="M116.32 81.55l3.4 -0.73" fill="none" stroke="#1e2026" stroke-width="0.6" stroke-linecap="round" stroke-linejoin="round"/><path d="M55.29 94.54l3.93 -0.54" fill="none" stroke="#1e2026" stroke-width="0.6" stroke-linecap="round" stroke-linejoin="round"/><path d="M36.87 57.29l1.72 0.66" fill="none" stroke="#b4aa92" stroke-width="0.6" stroke-linecap="round" stroke-linejoin="round"/><path d="M34.03 98.3l3.11 -0.8" fill="none" stroke="#1e2026" stroke-width="0.6" stroke-linecap="round" stroke-linejoin="round"/><path d="M81.72 125.32l3.85 0.54" fill="none" stroke="#1e2026" stroke-width="0.6" stroke-linecap="round" stroke-linejoin="round"/><path d="M50.38 77.31l1.85 -0.41" fill="none" stroke="#b4aa92" stroke-width="0.6" stroke-linecap="round" stroke-linejoin="round"/><path d="M95.11 63.61l2.03 -0.98" fill="none" stroke="#1e2026" stroke-width="0.6" stroke-linecap="round" stroke-linejoin="round"/><path d="M94.47 104.17l1.24 0.19" fill="none" stroke="#1e2026" stroke-width="0.6" stroke-linecap="round" stroke-linejoin="round"/><path d="M8.88 112.94l1.85 0.22" fill="none" stroke="#b4aa92" stroke-width="0.6" stroke-linecap="round" stroke-linejoin="round"/><path d="M48.67 30.4l3.95 0.71" fill="none" stroke="#1e2026" stroke-width="0.6" stroke-linecap="round" stroke-linejoin="round"/><path d="M85.73 43.17l2.99 0.61" fill="none" stroke="#1e2026" stroke-width="0.6" stroke-linecap="round" stroke-linejoin="round"/><path d="M78.81 92.76l4.52 -0.11" fill="none" stroke="#b4aa92" stroke-width="0.6" stroke-linecap="round" stroke-linejoin="round"/><path d="M114.44 83.47l1.09 -0.61" fill="none" stroke="#1e2026" stroke-width="0.6" stroke-linecap="round" stroke-linejoin="round"/><path d="M105.45 55.4l4.87 0.51" fill="none" stroke="#1e2026" stroke-width="0.6" stroke-linecap="round" stroke-linejoin="round"/><path d="M117.15 4.58l2.94 -0.87" fill="none" stroke="#b4aa92" stroke-width="0.6" stroke-linecap="round" stroke-linejoin="round"/><path d="M19.13 88.21l3.11 0.52" fill="none" stroke="#1e2026" stroke-width="0.6" stroke-linecap="round" stroke-linejoin="round"/><path d="M8.62 65.07l2.87 0.42" fill="none" stroke="#1e2026" stroke-width="0.6" stroke-linecap="round" stroke-linejoin="round"/><path d="M127.61 53.01l3.58 0.27" fill="none" stroke="#b4aa92" stroke-width="0.6" stroke-linecap="round" stroke-linejoin="round"/><path d="M127.44 109.58l4.43 0.66" fill="none" stroke="#1e2026" stroke-width="0.6" stroke-linecap="round" stroke-linejoin="round"/><path d="M43.14 13.8l4.16 -0.08" fill="none" stroke="#1e2026" stroke-width="0.6" stroke-linecap="round" stroke-linejoin="round"/><path d="M79.31 19.05l3.31 -0.93" fill="none" stroke="#b4aa92" stroke-width="0.6" stroke-linecap="round" stroke-linejoin="round"/><path d="M105.68 51.06l4.76 0.93" fill="none" stroke="#1e2026" stroke-width="0.6" stroke-linecap="round" stroke-linejoin="round"/><path d="M116.28 105.03l3.47 -0.3" fill="none" stroke="#1e2026" stroke-width="0.6" stroke-linecap="round" stroke-linejoin="round"/><path d="M94.19 19.92l1.14 -0.3" fill="none" stroke="#b4aa92" stroke-width="0.6" stroke-linecap="round" stroke-linejoin="round"/><path d="M59.99 39.84l2.61 0.66" fill="none" stroke="#1e2026" stroke-width="0.6" stroke-linecap="round" stroke-linejoin="round"/><path d="M89.82 20.5l3.94 -0.71" fill="none" stroke="#1e2026" stroke-width="0.6" stroke-linecap="round" stroke-linejoin="round"/><path d="M120.96 34.91l2.77 -0.61" fill="none" stroke="#b4aa92" stroke-width="0.6" stroke-linecap="round" stroke-linejoin="round"/><path d="M35.22 44.09l2.99 -0.67" fill="none" stroke="#1e2026" stroke-width="0.6" stroke-linecap="round" stroke-linejoin="round"/><path d="M29.79 42.97l2.31 0.15" fill="none" stroke="#1e2026" stroke-width="0.6" stroke-linecap="round" stroke-linejoin="round"/><path d="M37.78 75.42l4.81 0.03" fill="none" stroke="#b4aa92" stroke-width="0.6" stroke-linecap="round" stroke-linejoin="round"/><path d="M64.43 56.34l1 -0.45" fill="none" stroke="#1e2026" stroke-width="0.6" stroke-linecap="round" stroke-linejoin="round"/><path d="M8.85 10.94l3.44 0.29" fill="none" stroke="#1e2026" stroke-width="0.6" stroke-linecap="round" stroke-linejoin="round"/><path d="M5.45 93.13l2.52 0.28" fill="none" stroke="#b4aa92" stroke-width="0.6" stroke-linecap="round" stroke-linejoin="round"/><path d="M46.99 33.02l4.45 -0.05" fill="none" stroke="#1e2026" stroke-width="0.6" stroke-linecap="round" stroke-linejoin="round"/><path d="M115.24 127.55l2.04 0.88" fill="none" stroke="#1e2026" stroke-width="0.6" stroke-linecap="round" stroke-linejoin="round"/><path d="M29.27 32.24l2.25 0.19" fill="none" stroke="#b4aa92" stroke-width="0.6" stroke-linecap="round" stroke-linejoin="round"/><path d="M45.33 92.11l3.2 -0.28" fill="none" stroke="#1e2026" stroke-width="0.6" stroke-linecap="round" stroke-linejoin="round"/><path d="M74.46 125.63l2.6 0.01" fill="none" stroke="#1e2026" stroke-width="0.6" stroke-linecap="round" stroke-linejoin="round"/><path d="M23.57 79.9l4.22 -0.96" fill="none" stroke="#b4aa92" stroke-width="0.6" stroke-linecap="round" stroke-linejoin="round"/><path d="M86.32 94.89l2.43 0.88" fill="none" stroke="#1e2026" stroke-width="0.6" stroke-linecap="round" stroke-linejoin="round"/><path d="M97.44 106.83l1.37 -0.84" fill="none" stroke="#1e2026" stroke-width="0.6" stroke-linecap="round" stroke-linejoin="round"/><path d="M40.83 48.7l2.86 -0.52" fill="none" stroke="#b4aa92" stroke-width="0.6" stroke-linecap="round" stroke-linejoin="round"/><path d="M121.23 73.89l1.59 0.78" fill="none" stroke="#1e2026" stroke-width="0.6" stroke-linecap="round" stroke-linejoin="round"/><path d="M121.47 4.91l3.52 0.59" fill="none" stroke="#1e2026" stroke-width="0.6" stroke-linecap="round" stroke-linejoin="round"/><path d="M103.38 57.35l4.4 -0.57" fill="none" stroke="#b4aa92" stroke-width="0.6" stroke-linecap="round" stroke-linejoin="round"/><path d="M62.4 56.82l2.02 0.09" fill="none" stroke="#1e2026" stroke-width="0.6" stroke-linecap="round" stroke-linejoin="round"/><path d="M17.66 31.11l1.13 0.06" fill="none" stroke="#1e2026" stroke-width="0.6" stroke-linecap="round" stroke-linejoin="round"/><path d="M3.8 99.44l2.83 0.07" fill="none" stroke="#b4aa92" stroke-width="0.6" stroke-linecap="round" stroke-linejoin="round"/><path d="M102.42 44.84l3.24 -0.32" fill="none" stroke="#1e2026" stroke-width="0.6" stroke-linecap="round" stroke-linejoin="round"/><path d="M43.05 11.7l3.24 0.11" fill="none" stroke="#1e2026" stroke-width="0.6" stroke-linecap="round" stroke-linejoin="round"/><path d="M111.89 90.32l4.06 0.22" fill="none" stroke="#b4aa92" stroke-width="0.6" stroke-linecap="round" stroke-linejoin="round"/><path d="M18.03 38.74l4.69 0.67" fill="none" stroke="#1e2026" stroke-width="0.6" stroke-linecap="round" stroke-linejoin="round"/><path d="M79.4 39.6l1.66 -0.56" fill="none" stroke="#1e2026" stroke-width="0.6" stroke-linecap="round" stroke-linejoin="round"/><path d="M34.32 94.15l1.31 0.53" fill="none" stroke="#b4aa92" stroke-width="0.6" stroke-linecap="round" stroke-linejoin="round"/><path d="M32.63 39.36l3.04 0.04" fill="none" stroke="#1e2026" stroke-width="0.6" stroke-linecap="round" stroke-linejoin="round"/><path d="M72.5 30.21l1.69 0.51" fill="none" stroke="#1e2026" stroke-width="0.6" stroke-linecap="round" stroke-linejoin="round"/><path d="M68.84 81.05l1.53 0.79" fill="none" stroke="#b4aa92" stroke-width="0.6" stroke-linecap="round" stroke-linejoin="round"/><path d="M83.35 108.14l3.94 -0.87" fill="none" stroke="#1e2026" stroke-width="0.6" stroke-linecap="round" stroke-linejoin="round"/><path d="M22.17 27.23l3.44 -0.1" fill="none" stroke="#1e2026" stroke-width="0.6" stroke-linecap="round" stroke-linejoin="round"/><path d="M59.16 4.36l3.95 0.58" fill="none" stroke="#b4aa92" stroke-width="0.6" stroke-linecap="round" stroke-linejoin="round"/><path d="M2.84 93.74l4.03 0.44" fill="none" stroke="#1e2026" stroke-width="0.6" stroke-linecap="round" stroke-linejoin="round"/><path d="M80.92 64.74l4.97 0.64" fill="none" stroke="#1e2026" stroke-width="0.6" stroke-linecap="round" stroke-linejoin="round"/><path d="M16.45 124.03l4.59 -0.08" fill="none" stroke="#b4aa92" stroke-width="0.6" stroke-linecap="round" stroke-linejoin="round"/><path d="M85.61 70.84l4.36 0.87" fill="none" stroke="#1e2026" stroke-width="0.6" stroke-linecap="round" stroke-linejoin="round"/><path d="M71.16 87.35l2.93 -0.07" fill="none" stroke="#1e2026" stroke-width="0.6" stroke-linecap="round" stroke-linejoin="round"/><path d="M121.43 126.17l1.65 0.84" fill="none" stroke="#b4aa92" stroke-width="0.6" stroke-linecap="round" stroke-linejoin="round"/><path d="M5.02 9.01l1.01 0.04" fill="none" stroke="#1e2026" stroke-width="0.6" stroke-linecap="round" stroke-linejoin="round"/></g></svg>