<svg xmlns="http://www.w3.org/2000/svg" width="128" height="128" viewBox="0 0 128 128"><title>dark — well</title><defs><linearGradient id="stone" x2=".7" y2="1"><stop stop-color="#a4a19b"/><stop offset=".5" stop-color="#68686b"/><stop offset="1" stop-color="#393e44"/></linearGradient><linearGradient id="wood" x2="0" y2="1"><stop stop-color="#887257"/><stop offset=".5" stop-color="#564639"/><stop offset="1" stop-color="#2e2825"/></linearGradient><linearGradient id="roof" x2="1" y2=".3"><stop stop-color="#9d8870"/><stop offset=".5" stop-color="#654e43"/><stop offset="1" stop-color="#302c2d"/></linearGradient><linearGradient id="cloth" x2=".5" y2="1"><stop stop-color="#8f8a80"/><stop offset=".5" stop-color="#6c6b64"/><stop offset="1" stop-color="#494b49"/></linearGradient><filter id="white"><feColorMatrix type="matrix" values="0 0 0 0 1 0 0 0 0 1 0 0 0 0 1 0 0 0 1 0"/></filter><g id="art"><circle cx="64" cy="67" r="39" fill="#474a4a" stroke="#373636" stroke-width="2"/><circle cx="64" cy="63" r="37" fill="url(#stone)" stroke="#373636" stroke-width="2"/><circle cx="64" cy="63" r="25" fill="#3e484b" stroke="#373839" stroke-width="3"/><path d="M46 65q9 -6 17 0t13 -2" fill="none" stroke="#78817e" stroke-width="2" stroke-linejoin="round" stroke-linecap="round"/><path d="M90 63L101 63" fill="none" stroke="#373636" stroke-width="2" stroke-linejoin="round" stroke-linecap="round"/><path d="M82.38477631085024 81.38477631085024L90.16295090390226 89.16295090390226" fill="none" stroke="#373636" stroke-width="2" stroke-linejoin="round" stroke-linecap="round"/><path d="M64 89L64 100" fill="none" stroke="#373636" stroke-width="2" stroke-linejoin="round" stroke-linecap="round"/><path d="M45.615223689149765 81.38477631085024L37.83704909609774 89.16295090390226" fill="none" stroke="#373636" stroke-width="2" stroke-linejoin="round" stroke-linecap="round"/><path d="M38 63L27 63.00000000000001" fill="none" stroke="#373636" stroke-width="2" stroke-linejoin="round" stroke-linecap="round"/><path d="M45.61522368914976 44.615223689149765L37.837049096097736 36.83704909609774" fill="none" stroke="#373636" stroke-width="2" stroke-linejoin="round" stroke-linecap="round"/><path d="M63.99999999999999 37L63.99999999999999 26" fill="none" stroke="#373636" stroke-width="2" stroke-linejoin="round" stroke-linecap="round"/><path d="M82.38477631085023 44.61522368914976L90.16295090390226 36.837049096097736" fill="none" stroke="#373636" stroke-width="2" stroke-linejoin="round" stroke-linecap="round"/><rect x="23" y="23" width="9" height="69" rx="2" fill="url(#wood)" stroke="#373636" stroke-width="2"/><rect x="96" y="23" width="9" height="69" rx="2" fill="url(#wood)" stroke="#373636" stroke-width="2"/><rect x="25" y="24" width="78" height="9" rx="2" fill="url(#wood)" stroke="#373636" stroke-width="2"/><path d="M64 28V61" fill="none" stroke="#8f897f" stroke-width="2" stroke-linejoin="round" stroke-linecap="round"/><rect x="56" y="54" width="16" height="15" rx="2" fill="url(#wood)" stroke="#373636" stroke-width="2"/><path d="M31 53l6 7 -3 6 7 9m-4 -15 9 1" fill="none" stroke="#29252b" stroke-width="1.9" stroke-linecap="round" stroke-linejoin="round"/><rect x="27" y="23" width="74" height="5" rx="1" fill="#444348" stroke="#29252b" stroke-width="1.2"/></g><mask id="wear" maskUnits="userSpaceOnUse" x="0" y="0" width="128" height="128"><use href="#art" filter="url(#white)"/></mask></defs><use href="#art"/><g mask="url(#wear)" opacity=".42"><path d="M5.88 10.2l4.9 0.08" fill="none" stroke="#b4aa92" stroke-width="0.6" stroke-linecap="round" stroke-linejoin="round"/><path d="M88.69 13.61l2.03 -0.67" fill="none" stroke="#1e2026" stroke-width="0.6" stroke-linecap="round" stroke-linejoin="round"/><path d="M75.53 101.67l4.95 0.69" fill="none" stroke="#1e2026" stroke-width="0.6" stroke-linecap="round" stroke-linejoin="round"/><path d="M25.32 65.29l1.91 -0.24" fill="none" stroke="#b4aa92" stroke-width="0.6" stroke-linecap="round" stroke-linejoin="round"/><path d="M21.92 119.64l2.07 -0.75" fill="none" stroke="#1e2026" stroke-width="0.6" stroke-linecap="round" stroke-linejoin="round"/><path d="M99.27 22.5l2.63 0.76" fill="none" stroke="#1e2026" stroke-width="0.6" stroke-linecap="round" stroke-linejoin="round"/><path d="M123.09 124.67l3.01 0.42" fill="none" stroke="#b4aa92" stroke-width="0.6" stroke-linecap="round" stroke-linejoin="round"/><path d="M7.26 50.57l2.18 0.66" fill="none" stroke="#1e2026" stroke-width="0.6" stroke-linecap="round" stroke-linejoin="round"/><path d="M34.77 82.93l4.55 0.56" fill="none" stroke="#1e2026" stroke-width="0.6" stroke-linecap="round" stroke-linejoin="round"/><path d="M61.32 117.6l4.79 -0.21" fill="none" stroke="#b4aa92" stroke-width="0.6" stroke-linecap="round" stroke-linejoin="round"/><path d="M123.58 46.5l2.72 -0.31" fill="none" stroke="#1e2026" stroke-width="0.6" stroke-linecap="round" stroke-linejoin="round"/><path d="M14 82.69l4.79 -0.46" fill="none" stroke="#1e2026" stroke-width="0.6" stroke-linecap="round" stroke-linejoin="round"/><path d="M24.32 85.57l1.3 0.57" fill="none" stroke="#b4aa92" stroke-width="0.6" stroke-linecap="round" stroke-linejoin="round"/><path d="M99.65 48.19l1.72 0.57" fill="none" stroke="#1e2026" stroke-width="0.6" stroke-linecap="round" stroke-linejoin="round"/><path d="M53.2 100.72l3.53 0.96" fill="none" stroke="#1e2026" stroke-width="0.6" stroke-linecap="round" stroke-linejoin="round"/><path d="M67.64 79.98l2.67 0" fill="none" stroke="#b4aa92" stroke-width="0.6" stroke-linecap="round" stroke-linejoin="round"/><path d="M101.08 27.17l3.13 0.94" fill="none" stroke="#1e2026" stroke-width="0.6" stroke-linecap="round" stroke-linejoin="round"/><path d="M47.66 63.68l3.86 -0.08" fill="none" stroke="#1e2026" stroke-width="0.6" stroke-linecap="round" stroke-linejoin="round"/><path d="M102.76 47.03l2.43 -0.61" fill="none" stroke="#b4aa92" stroke-width="0.6" stroke-linecap="round" stroke-linejoin="round"/><path d="M46.91 80.93l3.54 0.85" fill="none" stroke="#1e2026" stroke-width="0.6" stroke-linecap="round" stroke-linejoin="round"/><path d="M34.19 41.51l1.97 -0.41" fill="none" stroke="#1e2026" stroke-width="0.6" stroke-linecap="round" stroke-linejoin="round"/><path d="M127.4 25.6l2.05 0.42" fill="none" stroke="#b4aa92" stroke-width="0.6" stroke-linecap="round" stroke-linejoin="round"/><path d="M77.73 75.23l1.12 -0.07" fill="none" stroke="#1e2026" stroke-width="0.6" stroke-linecap="round" stroke-linejoin="round"/><path d="M111.16 124.11l1.18 -0.79" fill="none" stroke="#1e2026" stroke-width="0.6" stroke-linecap="round" stroke-linejoin="round"/><path d="M59.4 120.44l2.12 -0.22" fill="none" stroke="#b4aa92" stroke-width="0.6" stroke-linecap="round" stroke-linejoin="round"/><path d="M93.53 55.62l2.8 -0.45" fill="none" stroke="#1e2026" stroke-width="0.6" stroke-linecap="round" stroke-linejoin="round"/><path d="M78.16 45.27l1.29 0.44" fill="none" stroke="#1e2026" stroke-width="0.6" stroke-linecap="round" stroke-linejoin="round"/><path d="M100.37 0.27l2.66 -0.33" fill="none" stroke="#b4aa92" stroke-width="0.6" stroke-linecap="round" stroke-linejoin="round"/><path d="M23.11 121.97l3.49 -0.73" fill="none" stroke="#1e2026" stroke-width="0.6" stroke-linecap="round" stroke-linejoin="round"/><path d="M41.34 31.5l3.55 0.79" fill="none" stroke="#1e2026" stroke-width="0.6" stroke-linecap="round" stroke-linejoin="round"/><path d="M26.76 7.2l3.87 0.86" fill="none" stroke="#b4aa92" stroke-width="0.6" stroke-linecap="round" stroke-linejoin="round"/><path d="M87.14 28.24l3.6 -0.58" fill="none" stroke="#1e2026" stroke-width="0.6" stroke-linecap="round" stroke-linejoin="round"/><path d="M62.31 34.24l4.84 -0.58" fill="none" stroke="#1e2026" stroke-width="0.6" stroke-linecap="round" stroke-linejoin="round"/><path d="M62.75 107.17l3.92 0.78" fill="none" stroke="#b4aa92" stroke-width="0.6" stroke-linecap="round" stroke-linejoin="round"/><path d="M92.85 81.23l4.29 0.26" fill="none" stroke="#1e2026" stroke-width="0.6" stroke-linecap="round" stroke-linejoin="round"/><path d="M32.71 38.98l3.43 -0.68" fill="none" stroke="#1e2026" stroke-width="0.6" stroke-linecap="round" stroke-linejoin="round"/><path d="M4.65 111.48l3.06 0.35" fill="none" stroke="#b4aa92" stroke-width="0.6" stroke-linecap="round" stroke-linejoin="round"/><path d="M30.31 80.65l4.96 0.41" fill="none" stroke="#1e2026" stroke-width="0.6" stroke-linecap="round" stroke-linejoin="round"/><path d="M92.37 81.67l3.7 0.05" fill="none" stroke="#1e2026" stroke-width="0.6" stroke-linecap="round" stroke-linejoin="round"/><path d="M82.92 23.61l4.63 -0.91" fill="none" stroke="#b4aa92" stroke-width="0.6" stroke-linecap="round" stroke-linejoin="round"/><path d="M48.38 114.09l4.4 0.01" fill="none" stroke="#1e2026" stroke-width="0.6" stroke-linecap="round" stroke-linejoin="round"/><path d="M21.17 42.1l4.4 -0.01" fill="none" stroke="#1e2026" stroke-width="0.6" stroke-linecap="round" stroke-linejoin="round"/><path d="M39.91 36.95l4.26 -0.95" fill="none" stroke="#b4aa92" stroke-width="0.6" stroke-linecap="round" stroke-linejoin="round"/><path d="M96.25 13.34l3.97 0.37" fill="none" stroke="#1e2026" stroke-width="0.6" stroke-linecap="round" stroke-linejoin="round"/><path d="M34.39 84.56l3.72 -0.65" fill="none" stroke="#1e2026" stroke-width="0.6" stroke-linecap="round" stroke-linejoin="round"/><path d="M101.13 125.81l3.86 0.31" fill="none" stroke="#b4aa92" stroke-width="0.6" stroke-linecap="round" stroke-linejoin="round"/><path d="M60.65 69.63l4.34 0.61" fill="none" stroke="#1e2026" stroke-width="0.6" stroke-linecap="round" stroke-linejoin="round"/><path d="M67.81 87.51l3.78 -0.08" fill="none" stroke="#1e2026" stroke-width="0.6" stroke-linecap="round" stroke-linejoin="round"/><path d="M126.19 99.51l3.73 -0.57" fill="none" stroke="#b4aa92" stroke-width="0.6" stroke-linecap="round" stroke-linejoin="round"/><path d="M108.6 6.18l4.19 -0.17" fill="none" stroke="#1e2026" stroke-width="0.6" stroke-linecap="round" stroke-linejoin="round"/><path d="M46.41 20.42l1.82 -0.23" fill="none" stroke="#1e2026" stroke-width="0.6" stroke-linecap="round" stroke-linejoin="round"/><path d="M41.33 125.59l3.19 0.68" fill="none" stroke="#b4aa92" stroke-width="0.6" stroke-linecap="round" stroke-linejoin="round"/><path d="M81.91 21.71l2.28 0.56" fill="none" stroke="#1e2026" stroke-width="0.6" stroke-linecap="round" stroke-linejoin="round"/><path d="M78.63 57.75l4.62 -0.22" fill="none" stroke="#1e2026" stroke-width="0.6" stroke-linecap="round" stroke-linejoin="round"/><path d="M79.66 96.12l1.31 0.38" fill="none" stroke="#b4aa92" stroke-width="0.6" stroke-linecap="round" stroke-linejoin="round"/><path d="M21.16 71.18l1.38 0.92" fill="none" stroke="#1e2026" stroke-width="0.6" stroke-linecap="round" stroke-linejoin="round"/><path d="M62.31 20.02l3.57 -0.61" fill="none" stroke="#1e2026" stroke-width="0.6" stroke-linecap="round" stroke-linejoin="round"/><path d="M26.88 83.18l2.07 -0.74" fill="none" stroke="#b4aa92" stroke-width="0.6" stroke-linecap="round" stroke-linejoin="round"/><path d="M89.45 109.67l1.42 0.2" fill="none" stroke="#1e2026" stroke-width="0.6" stroke-linecap="round" stroke-linejoin="round"/><path d="M12.28 68.01l4.83 -0.62" fill="none" stroke="#1e2026" stroke-width="0.6" stroke-linecap="round" stroke-linejoin="round"/><path d="M30.79 65.45l1.4 0.06" fill="none" stroke="#b4aa92" stroke-width="0.6" stroke-linecap="round" stroke-linejoin="round"/><path d="M117.64 89.24l2.41 0.41" fill="none" stroke="#1e2026" stroke-width="0.6" stroke-linecap="round" stroke-linejoin="round"/><path d="M19.48 0.13l1.98 0.04" fill="none" stroke="#1e2026" stroke-width="0.6" stroke-linecap="round" stroke-linejoin="round"/><path d="M60.29 83.92l2.57 0.36" fill="none" stroke="#b4aa92" stroke-width="0.6" stroke-linecap="round" stroke-linejoin="round"/><path d="M49.34 67.12l2.47 -0.65" fill="none" stroke="#1e2026" stroke-width="0.6" stroke-linecap="round" stroke-linejoin="round"/><path d="M63.83 38.85l3.65 -0.5" fill="none" stroke="#1e2026" stroke-width="0.6" stroke-linecap="round" stroke-linejoin="round"/><path d="M124.08 96.7l3.31 0.87" fill="none" stroke="#b4aa92" stroke-width="0.6" stroke-linecap="round" stroke-linejoin="round"/><path d="M35.42 46.87l1.43 0.89" fill="none" stroke="#1e2026" stroke-width="0.6" stroke-linecap="round" stroke-linejoin="round"/><path d="M62.6 8.3l1.55 -0.27" fill="none" stroke="#1e2026" stroke-width="0.6" stroke-linecap="round" stroke-linejoin="round"/><path d="M62.99 115.04l3.24 0.07" fill="none" stroke="#b4aa92" stroke-width="0.6" stroke-linecap="round" stroke-linejoin="round"/><path d="M112.2 102.7l1.5 0.99" fill="none" stroke="#1e2026" stroke-width="0.6" stroke-linecap="round" stroke-linejoin="round"/><path d="M56.52 108.96l1.3 -0.19" fill="none" stroke="#1e2026" stroke-width="0.6" stroke-linecap="round" stroke-linejoin="round"/><path d="M65.84 82.34l4.79 0.56" fill="none" stroke="#b4aa92" stroke-width="0.6" stroke-linecap="round" stroke-linejoin="round"/><path d="M69.28 88.97l1.32 0.06" fill="none" stroke="#1e2026" stroke-width="0.6" stroke-linecap="round" stroke-linejoin="round"/><path d="M83.4 127.55l3.58 -0.89" fill="none" stroke="#1e2026" stroke-width="0.6" stroke-linecap="round" stroke-linejoin="round"/><path d="M19.07 14.42l2.35 0.93" fill="none" stroke="#b4aa92" stroke-width="0.6" stroke-linecap="round" stroke-linejoin="round"/><path d="M16.93 60.77l4.98 -0.81" fill="none" stroke="#1e2026" stroke-width="0.6" stroke-linecap="round" stroke-linejoin="round"/><path d="M89.5 95.92l3.92 0.9" fill="none" stroke="#1e2026" stroke-width="0.6" stroke-linecap="round" stroke-linejoin="round"/><path d="M55.89 54.83l2.85 -0.53" fill="none" stroke="#b4aa92" stroke-width="0.6" stroke-linecap="round" stroke-linejoin="round"/><path d="M19.18 3.59l4.33 0.11" fill="none" stroke="#1e2026" stroke-width="0.6" stroke-linecap="round" stroke-linejoin="round"/><path d="M4.39 69.2l4.73 0.07" fill="none" stroke="#1e2026" stroke-width="0.6" stroke-linecap="round" stroke-linejoin="round"/><path d="M95.06 3.3l2.29 0.71" fill="none" stroke="#b4aa92" stroke-width="0.6" stroke-linecap="round" stroke-linejoin="round"/><path d="M6.48 62.22l2.08 -0.98" fill="none" stroke="#1e2026" stroke-width="0.6" stroke-linecap="round" stroke-linejoin="round"/><path d="M9.58 52.94l1.77 0.46" fill="none" stroke="#1e2026" stroke-width="0.6" stroke-linecap="round" stroke-linejoin="round"/><path d="M31.35 83.38l3.78 -0.12" fill="none" stroke="#b4aa92" stroke-width="0.6" stroke-linecap="round" stroke-linejoin="round"/><path d="M62 58.65l4.08 -0.66" fill="none" stroke="#1e2026" stroke-width="0.6" stroke-linecap="round" stroke-linejoin="round"/><path d="M38.63 117.54l4.81 0.47" fill="none" stroke="#1e2026" stroke-width="0.6" stroke-linecap="round" stroke-linejoin="round"/><path d="M95.61 11.07l3.25 -0.62" fill="none" stroke="#b4aa92" stroke-width="0.6" stroke-linecap="round" stroke-linejoin="round"/><path d="M55.58 65.19l2.26 0.68" fill="none" stroke="#1e2026" stroke-width="0.6" stroke-linecap="round" stroke-linejoin="round"/><path d="M10.99 1.61l4.61 -0.46" fill="none" stroke="#1e2026" stroke-width="0.6" stroke-linecap="round" stroke-linejoin="round"/><path d="M38.4 114.72l2.53 -0.52" fill="none" stroke="#b4aa92" stroke-width="0.6" stroke-linecap="round" stroke-linejoin="round"/><path d="M63.26 118.69l2.66 -0.25" fill="none" stroke="#1e2026" stroke-width="0.6" stroke-linecap="round" stroke-linejoin="round"/><path d="M29.45 98.64l3.86 1" fill="none" stroke="#1e2026" stroke-width="0.6" stroke-linecap="round" stroke-linejoin="round"/><path d="M47.32 95.98l2.15 0.08" fill="none" stroke="#b4aa92" stroke-width="0.6" stroke-linecap="round" stroke-linejoin="round"/><path d="M98.49 9.84l1.99 -0.25" fill="none" stroke="#1e2026" stroke-width="0.6" stroke-linecap="round" stroke-linejoin="round"/></g></svg>