<svg xmlns="http://www.w3.org/2000/svg" width="128" height="128" viewBox="0 0 128 128"><defs>
  <radialGradient id="leaf" cx="35%" cy="25%" r="78%"><stop stop-color="#77915b"/><stop offset=".48" stop-color="#4a7047"/><stop offset="1" stop-color="#2c503b"/></radialGradient>
  <radialGradient id="gold" cx="32%" cy="20%" r="80%"><stop stop-color="#c4bc72"/><stop offset=".5" stop-color="#909c57"/><stop offset="1" stop-color="#576941"/></radialGradient>
  <radialGradient id="pine" cx="30%" cy="24%" r="80%"><stop stop-color="#72947a"/><stop offset=".5" stop-color="#437763"/><stop offset="1" stop-color="#244e45"/></radialGradient>
  <linearGradient id="stone" x2=".7" y2="1"><stop stop-color="#b0b1a0"/><stop offset=".5" stop-color="#7f897f"/><stop offset="1" stop-color="#505e5b"/></linearGradient>
  <linearGradient id="wood" x2="0" y2="1"><stop stop-color="#af8954"/><stop offset=".45" stop-color="#886640"/><stop offset="1" stop-color="#5a4430"/></linearGradient>
  <linearGradient id="crystal" x2=".8" y2="1"><stop stop-color="#d4f8e1"/><stop offset=".4" stop-color="#75d1c6"/><stop offset="1" stop-color="#3b737e"/></linearGradient>
  <radialGradient id="flame"><stop stop-color="#fff5bf"/><stop offset=".35" stop-color="#efc575"/><stop offset=".7" stop-color="#dc8548"/><stop offset="1" stop-color="#b04e29"/></radialGradient>
</defs><path d="M105.54 55.48Q107.11 68.00 101.92 78.19Q96.72 88.39 89.79 97.74Q82.85 107.09 71.13 107.01Q59.40 106.94 48.61 103.15Q37.82 99.37 33.58 88.92Q29.33 78.47 25.84 66.97Q22.35 55.48 29.76 45.68Q37.17 35.89 48.28 32.44Q59.39 29.00 70.77 29.72Q82.15 30.44 93.06 36.70Q103.96 42.96 105.54 55.48Z" fill="#566463" stroke="#303e40" stroke-width="1.2" stroke-linejoin="round" stroke-linecap="round"/><path d="M26 82L53 31 76 20 101 78 76 107Z" fill="url(#stone)" stroke="#3b4948" stroke-width="2" stroke-linejoin="round" stroke-linecap="round"/><path d="M53 31L60 70 26 82M76 20L60 70 76 107M60 70L101 78" fill="none" stroke="#a4b0a2" stroke-width="2" stroke-linejoin="round" stroke-linecap="round"/><path d="M76 20L83 71 76 107 101 78Z" fill="#586766" stroke="none" stroke-width="1.4" stroke-linejoin="round" stroke-linecap="round"/></svg>