<svg xmlns="http://www.w3.org/2000/svg" width="128" height="128" viewBox="0 0 128 128"><defs><linearGradient id="stone" x2=".7" y2="1"><stop stop-color="#b0b1a0"/><stop offset=".5" stop-color="#7f897f"/><stop offset="1" stop-color="#505e5b"/></linearGradient><linearGradient id="wood" x2="0" y2="1"><stop stop-color="#af8954"/><stop offset=".5" stop-color="#886640"/><stop offset="1" stop-color="#5a4430"/></linearGradient><linearGradient id="roof" x2="1" y2=".3"><stop stop-color="#ce9567"/><stop offset=".5" stop-color="#a85e43"/><stop offset="1" stop-color="#643e35"/></linearGradient><linearGradient id="cloth" x2=".5" y2="1"><stop stop-color="#c9be8c"/><stop offset=".5" stop-color="#92956e"/><stop offset="1" stop-color="#586a54"/></linearGradient></defs><rect x="17" y="32" width="94" height="73" rx="2" fill="url(#wood)" stroke="#45493d" stroke-width="2"/><rect x="20" y="40" width="88" height="8" rx="2" fill="#b59c65" stroke="#45493d" stroke-width="2"/><rect x="20" y="84" width="88" height="8" rx="2" fill="#b59c65" stroke="#45493d" stroke-width="2"/><path d="M32 94V31" fill="none" stroke="#55442f" stroke-width="5" stroke-linejoin="round" stroke-linecap="round"/><path d="M32 64V11" fill="none" stroke="#c3c7b5" stroke-width="4" stroke-linejoin="round" stroke-linecap="round"/><path d="M25 65H39" fill="none" stroke="#c7ac73" stroke-width="3" stroke-linejoin="round" stroke-linecap="round"/><path d="M54 94V31" fill="none" stroke="#55442f" stroke-width="5" stroke-linejoin="round" stroke-linecap="round"/><path d="M54 64V18" fill="none" stroke="#c3c7b5" stroke-width="4" stroke-linejoin="round" stroke-linecap="round"/><path d="M47 65H61" fill="none" stroke="#c7ac73" stroke-width="3" stroke-linejoin="round" stroke-linecap="round"/><path d="M77 94V31" fill="none" stroke="#55442f" stroke-width="5" stroke-linejoin="round" stroke-linecap="round"/><path d="M77 64V11" fill="none" stroke="#c3c7b5" stroke-width="4" stroke-linejoin="round" stroke-linecap="round"/><path d="M70 65H84" fill="none" stroke="#c7ac73" stroke-width="3" stroke-linejoin="round" stroke-linecap="round"/><path d="M97 94V31" fill="none" stroke="#55442f" stroke-width="5" stroke-linejoin="round" stroke-linecap="round"/><path d="M97 64V18" fill="none" stroke="#c3c7b5" stroke-width="4" stroke-linejoin="round" stroke-linecap="round"/><path d="M90 65H104" fill="none" stroke="#c7ac73" stroke-width="3" stroke-linejoin="round" stroke-linecap="round"/></svg>